<svg xmlns="http://www.w3.org/2000/svg" viewBox="0 0 64 64">
    <style type="text/css"><![CDATA[#lg{display:none}@media(min-width:64px){#sm{display:none}#lg{display:block}}]]></style>
    <path id="sm" d="M45.937 64c-2.19 0-4.77-1.128-7.1-3.14-2.814-2.43-4.854-5.835-5.743-9.59-.994-4.197.434-8.134 4.02-11.087 1.637-1.347 3.518-2.336 5.145-3.065-.016-.133-.03-.264-.043-.395-.024-.258-.046-.513-.066-.765-.858.25-1.768.378-2.72.378-3.79 0-6.745-1.15-8.788-3.42-2.405-2.67-3.37-6.627-2.994-12.37-2.148 1.95-4.462 2.947-6.916 2.977-1.56.018-3.902-.426-6.193-2.655-.232-.225-.458-.463-.68-.715-.036 8.273 2.596 24.636 2.622 24.802l-7.55 1.222c-.115-.704-2.792-17.352-2.72-26.225.018-2.42.115-6.457.285-10.025.09-1.874.19-3.39.296-4.51.168-1.77.342-3.6 1.99-4.737C9.81-.028 11.12-.195 12.292.232c1.853.676 2.374 2.355 2.57 2.988.12.384.248.855.41 1.453.54 1.97 1.44 5.267 2.75 7.923 1.324 2.678 2.355 3.278 2.616 3.278h.002c1.054-.013 2.572-1.39 4.058-3.686 1.714-2.646 3.03-5.898 3.815-7.84.253-.623.45-1.115.628-1.505C30.642-.48 33.416.108 33.958.26c1.244.35 2.643 1.46 2.83 3.53.022.255.03.543.024.905-.008.48-.04 1.12-.102 1.957-.095 1.306-.257 3.104-.484 5.345-.367 3.636-.79 7.304-.824 7.615-.582 5.584.327 7.525.922 8.185.198.22.8.89 3.104.89 1.144 0 2.068-.818 2.856-4.807.08-.4.147-.745.234-1.065.656-2.41 2.705-3.282 4.332-3.073 1.757.225 3.57 1.716 3.402 4.456-.025.396-.083.853-.157 1.433-.198 1.558-.533 4.183-.434 7.6.614-.53 1.106-1.08 1.394-1.615l6.733 3.63c-1.57 2.91-4.452 5.007-6.763 6.315.76 3.01 1.57 6.373 1.57 9.638 0 2.33-.063 4.994-.54 7.082-.99 4.327-3.66 5.394-5.164 5.644-.306.05-.625.076-.953.076zm-1.983-19.182c-2.845 1.52-3.83 2.942-3.416 4.688.79 3.34 2.807 5.333 4.208 6.25.113-.893.2-2.31.2-4.56 0-1.942-.452-4.154-.992-6.378z"/>
    <path id="lg" d="M49.72 32.507c-.013-.455-.03-.922-.115-1.372-.01-.058-.066-.46-.195-.23-.835 1.484-2.024 2.273-3.61 2.668l-.01-.434c0-.1 0-.236.002-.307.004-.1.01-.228.01-.276l.022-.34.03-.338c.02-.212.048-.422.075-.632l.008-.073c.004-.02.01-.06.02-.135.02-.128.043-.256.064-.384.038-.223.08-.446.124-.67.086-.442.172-.882.235-1.33.147-1.033.13-2.107.07-3.145-.027-.43 0-1.065-.314-1.417-.35-.395-.776.372-.897.602-.947 1.8-1.446 3.845-3.312 4.965-1.812 1.087-4.043.433-5.72-.576-2.208-1.327-3.69-3.516-4.424-5.954-.185-.615-.292-1.252-.36-1.89l.03-.38c.036-.363.07-.726.105-1.09l.55-5.782.962-10.07c.034-.322.197-3.953-.176-3.918-.304.03-.427.848-.475 1.03-.178.693-.287 1.407-.41 2.112-.374 2.15-.74 4.31-1.295 6.423-.87 3.304-2.85 9.465-7.415 8.536-1.925-.39-3.196-2.264-4.07-3.867-1.16-2.125-1.908-4.472-2.548-6.797-.515-1.87-.91-3.77-1.315-5.665-.106-.492-.19-1.016-.37-1.487-.212-.548-.45.58-.47.697-.498 2.982-.166 6.166.068 9.16.25 3.212.588 6.416.875 9.624l.03.342c0 .018.023.277.026.31.024.29.046.58.067.87.08 1.105.153 2.21.25 3.316.183 2.107.424 4.207.72 6.3.308 2.162.647 4.326 1.12 6.457.003.007.004.015.006.022.196.872.334-.66.344-.823.065-1.008.134-2.148-.09-3.14-1.247-5.506-1.613-11.13-2.104-16.737-.133-1.517-.282-3.033-.426-4.55-.152-1.608-.29-3.084-.4-4.493-.053-.69-.1-1.38-.14-2.07-.01-.15-.018-.3-.025-.45l-.004-.086-.01-.303c.01-.022.015-.033.02-.036 0 .005.003.008.005.013.026.06.043.123.06.185l.006.018.02.08.1.444c.172.78.33 1.562.502 2.342.5 2.28 1.068 4.548 1.81 6.76 1.073 3.198 3.34 9.158 7.744 8.11 1.715-.41 2.917-1.93 3.748-3.386 1.093-1.914 1.712-4.083 2.24-6.21.322-1.298.58-2.61.82-3.926l-.24 2.507c-.48 5.015-1.426 10.388-.18 15.33.643 2.55 2.042 4.835 4.2 6.373 1.592 1.136 3.68 1.884 5.61 1.212 2.078-.724 3.005-3 3.807-4.85.077-.178.19-.524.356-.78-.162 1.584-.213 3.18-.186 4.776-1.14.25-2.152.504-3.157 1.167-2.605 1.72-4.58 4.584-5.494 7.54-.73 2.356-.748 4.89-.63 7.33.1 2.088.64 4.12 1.482 6.027 1.267 2.87 3.365 5.632 6.01 7.364.712.467 1.645.986 2.53.864 1.287-.176 1.727-1.936 1.983-2.956.54-2.15.595-4.46.66-6.662.076-2.577.086-5.165-.27-7.723-.303-2.172-.824-4.3-1.36-6.423-.19-.742-.386-1.487-.567-2.236.065-.02.13-.036.195-.058 1.3-.44 2.225-1.42 2.885-2.592.15-.266.133-.77.15-1.055.04-.588.046-1.18.028-1.768zM14.836 4.66v-.004s.007.01.017.03c-.01-.01-.015-.02-.017-.026zm16.59 16.61v-.004c.003.06.003.094 0 .003zm14.714 7.445c.006.02.007.03 0 0zm2.065 22.71c.004.064.003.045 0 0zm-.156-1.434c.06.396.107.796.137 1.194l.01.126c0 .262-.002.524-.004.786-.005.883-.037 1.863-.113 2.865-.1 1.312-.295 3.11-1.312 4.066-.703.662-1.7.328-2.457-.03-1.184-.564-2.213-1.466-3.127-2.39-2.04-2.067-3.534-4.683-4.38-7.45-.117-.384-.208-.772-.287-1.163l-.012-.076c.003-.02.006-.04.01-.056.06-.35.147-.696.247-1.038.39-1.342 1.037-2.602 1.81-3.76 1.196-1.788 2.933-3.587 4.982-4.37.637-.245 1.316-.35 1.988-.485.392 3.995 1.886 7.822 2.51 11.784z"/>
</svg>
