<svg xmlns="http://www.w3.org/2000/svg" width="150" height="30" viewBox="0 0 150 30">
  <path d="M1.177 2.475h8.016v2.27h-5.18V6.97h4.48v2.194h-4.48v4.19H1.176V2.475zM19.89 8.86c0 3.155-1.448 4.724-4.74 4.724-3.29 0-4.74-1.57-4.74-4.725V2.474h2.836v6.552c0 1.403.518 2.12 1.905 2.12s1.906-.717 1.906-2.12V2.475h2.835V8.86zM23.99 9.697c.06 1.28.852 1.693 2.056 1.693.853 0 1.737-.305 1.737-1.113 0-.96-1.554-1.143-3.124-1.586-1.556-.44-3.186-1.14-3.186-3.137 0-2.378 2.392-3.308 4.435-3.308 2.163 0 4.342 1.052 4.357 3.505h-2.834c.046-.99-.884-1.31-1.753-1.31-.61 0-1.37.213-1.37.93 0 .838 1.568.99 3.153 1.433 1.57.44 3.155 1.173 3.155 3.138 0 2.76-2.347 3.644-4.74 3.644-2.5 0-4.71-1.098-4.724-3.887h2.835zM34.152 9.697c.06 1.28.853 1.693 2.057 1.693.852 0 1.736-.305 1.736-1.113 0-.96-1.554-1.143-3.124-1.586-1.554-.44-3.185-1.14-3.185-3.137 0-2.378 2.393-3.308 4.435-3.308 2.164 0 4.343 1.052 4.36 3.505h-2.836c.046-.99-.884-1.31-1.753-1.31-.61 0-1.37.213-1.37.93 0 .838 1.568.99 3.153 1.433 1.57.44 3.155 1.173 3.155 3.138 0 2.76-2.346 3.644-4.74 3.644-2.498 0-4.707-1.098-4.723-3.887h2.835zM42.105 2.475h8.672v2.27H44.94v1.904h5.334v2.195H44.94v2.072h5.99v2.438h-8.825V2.475zM52.513 2.475h2.91l3.78 6.705h.03V2.475h2.668v10.88h-2.91l-3.78-6.782h-.03v6.782h-2.667V2.475zM63.834 2.475h8.672v2.27H66.67v1.904h5.333v2.195H66.67v2.072h5.99v2.438h-8.826V2.475zM84.316 13.355h-1.83l-.167-1.188c-.747 1.052-2.03 1.417-3.034 1.417-3.29 0-5.425-2.515-5.425-5.67 0-3.154 2.135-5.67 5.426-5.67 2.255 0 4.664 1.205 4.923 3.933h-2.835c-.092-.93-1.007-1.493-2.15-1.493-1.828 0-2.53 1.616-2.53 3.23 0 1.616.702 3.232 2.53 3.232 1.402 0 2.348-.656 2.5-1.646h-1.98V7.396h4.57v5.96zM96.17 13.355h-1.828l-.168-1.188c-.746 1.052-2.027 1.417-3.033 1.417-3.29 0-5.425-2.515-5.425-5.67 0-3.154 2.135-5.67 5.426-5.67 2.257 0 4.665 1.205 4.924 3.933H93.23c-.093-.93-1.006-1.493-2.15-1.493-1.828 0-2.53 1.616-2.53 3.23 0 1.616.702 3.232 2.53 3.232 1.403 0 2.348-.656 2.5-1.646H91.6V7.396h4.572v5.96zM97.983 2.475h8.672v2.27h-5.838v1.904h5.335v2.195h-5.335v2.072h5.99v2.438h-8.824V2.475zM108.42 2.475h5.547c1.92 0 3.81.868 3.81 3.062 0 1.174-.564 2.286-1.706 2.73v.03c1.16.273 1.495 1.568 1.587 2.604.03.46.076 2.06.457 2.455h-2.805c-.245-.366-.29-1.432-.32-1.737-.077-1.097-.26-2.224-1.586-2.224h-2.15v3.96h-2.834V2.475zm2.835 4.723h2.378c.853 0 1.31-.457 1.31-1.28 0-.808-.64-1.174-1.433-1.174h-2.255v2.454z"/>
  <path fill="none" stroke="#231F20" stroke-width=".567" stroke-miterlimit="10" d="M118.114 27.526h-5.548c-1.92 0-3.81-.868-3.81-3.062 0-1.174.563-2.287 1.706-2.73v-.03c-1.158-.273-1.493-1.568-1.585-2.605-.03-.458-.076-2.058-.457-2.454h2.805c.243.365.29 1.43.32 1.737.077 1.096.258 2.224 1.584 2.224h2.148v-3.96h2.836v10.88zm-2.836-4.723H112.9c-.853 0-1.31.457-1.31 1.28 0 .807.64 1.174 1.433 1.174h2.255v-2.454zM107.112 27.526h-2.835v-10.88h2.835v10.88zM95.088 23.64c.153 1.097 1.006 1.677 2.195 1.677 1.83 0 2.53-1.616 2.53-3.23 0-1.616-.7-3.232-2.53-3.232-1.327 0-2.09.762-2.195 2.012h-2.836c.154-2.805 2.21-4.45 4.97-4.45 3.29 0 5.425 2.515 5.425 5.67 0 3.154-2.134 5.668-5.426 5.668-2.344 0-4.89-1.492-4.968-4.115h2.836zM90.777 27.526h-2.835v-3.963H84.21v3.963h-2.836v-10.88h2.835v4.48h3.732v-4.48h2.835v10.88zM76.5 27.526h-2.882l-4.07-10.88h2.958l.67 1.95h3.795l.687-1.95h2.91L76.5 27.526zm-.184-6.827h-2.47l1.205 3.81h.03l1.236-3.81zM68.728 27.526H63.18c-1.92 0-3.81-.868-3.81-3.062 0-1.174.565-2.287 1.708-2.73v-.03c-1.16-.273-1.494-1.568-1.585-2.605-.03-.458-.077-2.058-.458-2.454h2.805c.243.365.29 1.43.32 1.737.076 1.096.258 2.224 1.585 2.224h2.15v-3.96h2.833v10.88zm-2.834-4.723h-2.378c-.853 0-1.31.457-1.31 1.28 0 .807.64 1.174 1.432 1.174h2.256v-2.454zM57.727 27.526h-4.68c-3.337 0-5.334-2.027-5.334-5.394 0-3.567 2.028-5.486 5.335-5.486h4.68v10.88zm-2.835-8.443h-1.34c-2.15.047-3.004.885-3.004 3.064 0 1.98 1.067 2.942 3.003 2.942h1.342v-6.007z"/>
  <path fill="none" stroke="#FEC628" stroke-width=".567" stroke-miterlimit="10" d="M30.706 15h118.117"/>
</svg>
