<svg xmlns="http://www.w3.org/2000/svg" viewBox="0 0 86.9083099 128">
<path fill="#000923" d="M86.8330612,55.5647926c-0.4428711-1.4241447-3.9429245,1.7773247-4.5901413,2.2885551
	c-2.4309845,1.9202042-4.8517456,3.8604126-7.3662109,5.670742c-0.0721893-2.1924095-0.1341476-4.3849297-0.1888275-6.577858
	c-0.1135483-4.5534477,0.6053009-10.992424-2.2921066-14.863781c-1.5883331-2.1222458-4.4673386-3.1361046-7.0114288-2.2781563
	c-3.5880356,1.2099953-4.8079185,4.9391937-6.0342216,8.1740189c-0.984108,2.5959473-2.0608139,5.9090729-4.2938919,7.7702522
	c-4.089901,3.3416176-8.0689278-3.0106964-8.9108124-6.294857c-1.3318367-5.1954613-0.6247978-10.7802353-0.0640068-16.0368614
	c0.6088066-5.7066841,1.4970474-11.3769531,2.4044685-17.0422821c0.813961-5.0818386,3.4798508-14.3102694-3.4393463-16.1812286
	c-3.534893-0.9558392-6.5974731,1.7818395-7.5713387,4.9263062c-1.4701157,4.7467675-1.8235245,9.8881321-2.8783875,14.7415504
	c-1.1028328,5.0741291-2.4030991,10.7537346-5.5366058,15.0098534c-0.8203506,1.1142502-2.5128403,3.0218887-4.1160755,2.2672997
	c-2.0533161-0.966423-3.3288879-3.7437401-4.2449074-5.6702919c-3.8317375-8.0588341-4.7551069-16.9290352-7.3573694-25.359333
	c-0.9771004-3.1654201-3.1398697-6.0539584-6.8266621-5.8661985C2.9962776,0.4217338,0.9306139,3.3977149,0.4152454,6.6070638
	c-0.7826995,4.8740954-0.267566,10.0748138,0.000254,14.9736614c0.2923639,5.3477936,0.6958522,10.6888142,1.0915077,16.0297108
	c0.5100968,6.8857193,0.9476595,13.7683411,1.8177927,20.6223755c0.3338633,2.6298409,0.7085273,5.254631,1.1313999,7.8716583
	c0.393436,2.4348602,0.3066845,4.6994781,2.4347954,6.2166977c3.8319378,2.7319412,7.9089708,1.2584152,9.7078953-2.9923401
	c0.4736881-0.9171219-0.1588249-2.4530258-0.3236179-3.4167709c-0.2268143-1.3264618-0.4405794-2.6551514-0.6417246-3.9857445
	c-0.4032679-2.6676559-0.7558737-5.3429451-1.0604458-8.0236549c-0.4419155-3.8895454-0.7528172-7.7880058-1.0273266-11.692215
	c4.9035444,6.5155869,13.2821093,8.9508858,20.3301048,4.1174393c0.5659561,7.3690414,3.3689613,15.0014725,9.8570404,19.1337051
	c6.1133652,3.8935776,14.1196175,3.6856613,19.4971237-1.3866043c0.0462074,1.1597061,0.0897064,2.3194733,0.1473732,3.4786835
	c0.0634384,1.2753296,0.1381531,2.550087,0.2224617,3.8242111c-1.2634048,0.8338547-2.5349808,1.6563492-3.7728271,2.5280685
	c-3.309227,2.3304138-6.7068825,5.0495529-9.1225853,8.3403778c-4.632843,6.3111572-7.2758865,14.3041611-5.6800308,22.1436539
	c1.7207146,8.4528351,6.222496,16.5415344,13.8872299,20.9325333c4.0577812,2.3246307,9.2117004,3.6857605,13.6952438,1.7643356
	c2.8475571-1.0500336,5.0247269-3.6320724,6.2675247-6.3214111c1.5143127-3.2768784,1.9690094-6.8596573,2.2350616-10.4232635
	c0.5605545-7.5084534-0.8831863-14.862114-2.687149-22.115654c-0.9590912-3.8563919-2.0838547-7.7136917-2.6575317-11.6523438
	c-0.1193314-0.8192673-0.2011108-1.6413879-0.2718964-2.4658737c-0.0308838-0.3596802-0.0591736-0.7195969-0.0887604-1.0793915
	c-0.0338821-0.4120255,1.4751892-1.6226349,1.7947998-1.9612808c1.8585052-1.9691467,3.4234619-3.8638077,5.0161362-5.9614868
	c1.1484985-1.5126572,2.2389297-3.0833282,3.1471176-4.7537498C86.0364685,59.0606575,87.2176361,57.0968437,86.8330612,55.5647926
	C86.715416,55.1864738,86.9283524,55.9443932,86.8330612,55.5647926z M69.5749741,106.5619659
	c-0.0019302,0.8783798,0.0025711,10.0222015-2.0226212,9.7468872c-4.5806274-0.7692566-8.119545-5.3901138-9.7086372-9.4549866
	c-1.4232178-3.6405563-2.1156731-7.4354248-1.0385323-11.2628632c1.1040192-4.7251053,4.9811211-9.3706818,8.298645-12.7481537
	C66.8370743,90.5610733,69.8218842,98.5544815,69.5749741,106.5619659
	C69.5709991,108.3756638,69.5894165,106.0934219,69.5749741,106.5619659z"/>
</svg>
