<svg xmlns="http://www.w3.org/2000/svg" viewBox="0 0 1280 412.3">
<path fill="#000923" d="M761.8,309.1c4.2,0.5,3.5-1.7,7.2-1.9c7.7-0.5,72.5-2.3,80.2-2.2c2.4,0,6.1,0.3,8.5,1.3
	c3.4,1.4,5.8,4.6,9.3,6.1c3.9,1.6,9.7,1.9,14,0.5c2.4-0.8,8.5-3.4,9.3-8.6c0.6-3.7-1.4-9.1-5.8-11.1c-3.1-1.4-8.7-2.1-14.5-0.7
	c-5.7,1.4-13,6.8-15.1,7.3c-6.4,1.4-87.7-1.8-91.9-2.8c-1.6-0.4-3.4,0.2-5.3,0.7c-6.1,1.8-34.3,3-40.8,2.4c-3.4-0.3-3.6-7.5-8.7-7.6
	c-2,0-4,2.3-4.1,3.8c-0.1,2-1,3.5-4.1,3.8c-6.4,0.8-57.2,0-63.7,0c-2,0-6.3-1.2-9.8-2.2c-2.7-0.8-3.4-5.2-7.6-4.8
	c-2.6,0.2-3.4,3.7-4.4,5.2c-1.3,2-7.8,1.8-9.3,1.8c-4.8,0-33.8,0-38.6,0c-2.7,0-4.9-0.7-7.2-2.3c-1.9-1.3-4.1-4.1-6.6-4
	c-3.7,0.2-4.1,3-6.5,3.5c-3,0.5-21.4-1.2-28.1-5c-8.2-4.6-18.6-1.4-23.4,1.9c-4.5,3.1-7.3,1.4-9.5-1.9c-0.8-1.1-4.4-6.4-9.2-7.2
	c-2.8-0.5-7.8,0.8-10.4,2c-3.9,1.7-7.8-1.1-9.3-2.3c-2.2-1.7-2.6-4.7,0-7.5c2.6-2.9,6.4-1.2,8.8-3.4c3-2.8,2.1-9.5-2.1-12.7
	c-3.3-2.6-10.4-2.6-14.1-0.4c-4.3,2.6-7.6,9.8-11.5,8.2c-5.6-2.3-4.2-9.1-8.1-10.2c-4.3-1.3-5.2,5.6-13.8,3.9
	c-3.3-0.7-4-5.3-4.8-6.9c-1.1-2.2-3.3-3.2-5.3-3.3c-2.1-0.1-5.4,0.6-6.5,3.6c-0.3,0.7-0.8,2.7-3.1,2.4c-2.1-0.2-2.2-2.7-2.3-3.3
	c-0.8-3.8-3.4-6.2-6.5-6.7c-3.4-0.5-7.1,0-9.2,2.9c-1.5,2.1-0.3,4.4-3.4,6.2c-2.4,1.4-4.2-2-7.1-0.6s-0.9,6.5-2.4,7
	c-1.7,0.6-3.2-1.6-4.9-2.3c-1.8-0.8-4.6-1.5-6.4-1.2c-5.8,0.9-6.9,5.4-8.4,6c-2.9,1.2-4.4-0.7-4.7-3.7c-0.3-2.9-0.9-4.7-3.1-5.6
	c-2.6-1.1-5,2.8-7.6-0.4c-2.8-3.5,1.5-15.3,8.4-20.8c1.9-1.5,6.2-2.9,8.2-6c1.3-2.1,8.2-16.9,10.3-20.2c2.4-3.8,13-16,16.4-21.8
	c3.6-6.2,9.4-17.6,12.1-24.1c2.8-6.7,7.6-20.8,7.2-24.9c-0.2-2-0.3-4.8,0.6-6.4c1.1-2.1,0.3-5.4,0.3-5.4s-9.5,15.8-12.4,19.6
	c-0.3,0.4-4.6,4.5-5,4.8c-0.4,0.2-2.9,4.1-2.9,4.1s5.9-14.7,3.5-17.4c-2.2-2.5,6.9-21,8.4-25.1c1.2-3.1,4.6-14.4,5.2-17.2
	c0.7-2.9,2.1-8.1,0.8-8.7c-2.2-1-3,3.5-3.4,5.5c-0.6,2.9-5.1,3.5-5.4,6.3c-0.9,7.6-11.6,24.7-11.6,24.7s4-11.2,4.1-11.5
	c1.2-2.4,2.2-7.3-0.1-10.1c-1-1.3-1.9-2.8-2.6-4.3c-0.5-1.3-0.5-8,3.3-13.5c3-4.3,4.3-10.2,4.6-14.9c0.2-2.3,0.9-15.2,0.9-15.2
	s-3,7.5-5.7,11.8c-1.2,1.9-3.5,5.4-5.8,6.1c-2.2,0.7-4,4.8-4,4.8s-0.9-12.1-0.1-17.4c0.7-4.9,2.8-9.9,2.3-15c-0.1-1.3-0.7-5.1-2.7-5
	c-1.8,0.1-3.5,13-5,16.1c-0.5,1.1-1.7,5.6-1.3,8.1c0.9,4.8-0.4,4.6-1.2,7.2c-2.3,7.7-7.6,8.3-7.6,8.3s3.6-15.6,3-22.4
	c-0.2-2.8-2.3-5.3-1.5-8.1c0.8-2.6,4-4.9,4.5-7.4c0.9-4.2-2.1-5.8-3.1-6.1c-1.9-0.6-4.9-3.5-5.1-6.5c-0.2-2.1,1-4.2,1.9-6
	c1-1.9,0.4-7.5-1.9-7.5c-3.3,0-4,4.8-2.8,7.6c1.8,4.3,0,12.8-0.7,14.1c-2.9,5.2-1.6,11.6-1.3,13.8c0.5,3.6-0.3,7.1-1.5,10.5
	c-0.8,2.3-2.6,7.4-3.1,13.4c-0.2,2.7-2.3,8.6-2.3,8.6s-2.9-5.5-2.7-7.8c0.7-8.7-3.9-10.9-4.6-17.2c-0.4-3.6,1-21-1.5-25.2
	c-4.6-7.6-10.6-17.6-10.4-25c0.1-2.9-1.3-8.1-3.1-8.1c-2.9,0,2.3,24.8,2.6,27c0.5,3.2-2.1,6,1,10.7c1.8,2.7,2.7,21.2,2.7,26
	c0,6.1-0.2,14.2-0.2,19.3c0,3.8-0.8,9.9-0.8,9.9s-3.8-5.1-5.7-8.7c-0.4-0.8-3.4-7.4-3.7-11.1c-0.2-2.5-2.1-3.1-3-4
	c-2.9-2.6-4.9-10.9-7.8-12.7c-3.2-2-4.9-5.2-4.7-8.5c0.2-3.7-0.7-8.7-3.7-6.9c-1.7,1,2.6,11.6,2.6,16.6c0,2.2,0.7,5.2,1.4,7.1
	c6,15.2,7.8,26.9,7.7,35.9c0,2.9-0.3,16.3-0.3,16.3s-4.4-11.1-5.9-14.9c-2.1-5.5-7.9-23.9-13.3-28.6c-1-0.8-5.7-3.3-6.9-4.4
	c-3.5-3.1-11-12.4-11-12.4s4.9,15.7,6.6,20.4c2.7,7.3,8.8,13.8,10.4,16.6c3.6,6.3,3.7,18,3.7,18s-5.8-11.6-8.8-15
	c-3.2-3.6-10.2-10.3-10.2-10.3s2.6,8.3,4.7,13.9c4.1,11.4,5.8,24.2,6.3,27c2.7,15.2,0,28.1-0.6,31.4c-2.8,14.3-15.9,45.1-20.4,49.5
	c-4.1,4-5.7,9.5-7.1,9.7c-1.7,0.2-6.9-5.3-11.8-5.3c-4.6,0-7.1-1.6-10.5-3.3c-6.1-3.1-11.8-4.2-18.5-2.2c-2.8,0.9-5.2,2.2-7.6,3.8
	c-3,2-5.1,5.3-5.8,9c-0.2,1.2-0.7,2.3-1.6,2.6c-4,1.3-6.9,2.6-9.8,4.6c-4.4,3-8.4,6.3-11.2,10.9c-1,1.6-1.4,5.8-1.4,5.8
	s8-5.5,10.6-6.9c4.2-2.3,10.5-3.3,10.5-3.3s-7.8,5-9.6,6.4c-6.5,4.9-7.7,9.7-7.7,9.7s4.1-1.8,5.8-2.5c1.9-0.8,9.5-3.5,11.6-3.7
	c4.5-0.5,9.2-1.5,13.4,0.6c2.7,1.3,4,4.1,4.6,6.9c1.3,5.8-0.9,9-2.1,10.7c-3.1,4.2-12.8,9.2-16.8,11.3c-4.6,2.4-24.7,14.7-30.5,18.3
	c-5.9,3.7-31.5,17.1-38.2,20.5c-8.1,4.1-36.6,14.2-42.3,16c-4.5,1.4-26.5,8.3-38.4,8.8c-9.1,0.4-15.8,0.9-22.2,0.5
	c-6.9-0.4-10.7-3.7-15.4-2.9c-3.1,0.6-4.2,2.1-4.2,5.6c0,3.7,4.8,5.5,8.8,3.7c5.7-2.6,10-3,15.3-2.8c2.7,0.1,8.8,0.3,9.2,2
	c0.6,2.5-2.6,3.7-3.6,4.4c-0.8,0.6-1,2.3-0.2,3.2c1.3,1.3,3.2,1.9,5.4,1.5c2.3-0.5,2.8-1.8,5.2-2.2c4.3-0.7,7.8,2.5,4.6,6.7
	c-1,1.4-1.8,3.1-1.7,3.8c0.2,0.9,1.4,2.2,2.4,1.9c5.8-1.9,3.9,1.2,3.8,3.2c-0.1,2.5,3,2.7,4.3,2.1c1.6-0.8,2.4-1.7,4.7-4.5
	c1.2-1.5,4.3-1.4,4.5,0.6c0.3,2.9,1.2,2.9,2.9,3.1c1.8,0.2,5.6,0.7,6.2,3.1c0.7,2.7,1.3,5.7,3.9,7c2.9,1.4,5.5,2.3,8.8,0.5
	c2.2-1.3,3-3.5,6-3.3c4.5,0.3,9.6,7.4,12.9,6.3c3.4-1.1,7.4,1.4,7.4,3.2c0,2.1-2.1,3.6-3.6,4.8c-2.2,1.7-3.7,4-4.3,6.4
	c-0.7,2.8-2.5,4.7-3.7,7.1c-1,1.8-2.1,3.6-3.8,4.8c-2.5,1.6-3,4.9-1,5.9c3.5,1.8,5.8-1.5,6.2-2.4c1.1-2.4,3.4-5,4.4-7.5
	c1.3-3.4,3.4-6.5,5.2-9.6c1.1-1.9,3.3-2.4,4.1-4.5c1.6-4.1,3.7-7.1,6.7-10.1c0.4-0.4,10-11.3,12.1-13.1c4.2-3.5,8.4-8.3,13.7-9.6
	c2.2-0.5,6.6,1,8.1-0.2c2.5-1.9,1.4-6.7,6.2-6.2c1.4,0.2,2.5-0.2,3-1.8c0.9-2.7,5.9-1.6,6.6-1.2c1.4,0.8,3.7,1.6,5.6,1.2
	c1.7-0.4,2.8-1,3.5-2.3c0.7-1.2,0.8-1.5,0.8-3.1c0-1.5-0.5-1.8-0.8-5.5c-0.1-0.9-0.3-1.8,0-2.9c0.5-2.1,0.9-3.3,3.4-3.9
	c1.7-0.4,3.1,1.5,3.9,2c3.5,2.5,5.7,2.4,8.8,0.6c1.1-0.6,1.9-1.1,3-0.6c2.7,1.1,5,1.5,7-1c0.5-0.7,1-1.8,2.2-1.6
	c2.4,0.4,2.7,3.4,4.2,4.9c2.9,3.1,3.1,9.5,2,11.7c-0.6,1.2-0.5,4.1,0,5.1c1.8,3.4,1.8,12.5,2.4,14.7c0.9,3.2,0,9.1-0.7,10.9
	c-0.9,2.2-1.8,4-1.8,6.2c0.1,2.2,2.3,5.6,5.7,4.8c2.6-0.6,3-5,2.1-7.5c-1.6-4.4-2.7-8.8-2.4-13.5c0.1-1.7,0.3-7.7,0.8-9.2
	c1.2-3.4,1.4-6.6-0.6-10.3c-1.5-2.8,0.2-7.2,1.3-10.2c0.8-2.1,1.5-10.9,5.2-10.4c0.4,0,1.3-0.5,1.6-1.1c0.7-1.5-0.5-5.3,3.9-6.4
	c1.7-0.4,3.9,0.9,4.8,3.5c0.8,2.4-1.7,4.9-0.2,6.9c2,2.7,6.1,3.9,10.1,2.4c6.5-2.4,6-9.3,3.7-13.4c-0.7-1.2-1.5-1.8-2.7-2.3
	c-1.6-0.8-1.9-2.7-1.5-4.2c0.4-1.9,2.7-2.9,4.1-2.9c3.1,0,5.2,2,6.3,5.2c0.5,1.5,0.2,6.1,2.9,7.3c2.2,1,5.6-0.8,6.4,3.2
	c0.8,3.8-1.2,4.4-2.2,6.8c-0.7,1.8-1.2,3.6-0.2,5c2.3,2.9,7.2,0.2,8.8,0.9c2.2,1,0.7,4.8,2,5.6c1.5,0.9,3.8,0.8,5.6-0.9
	c1.7-1.5,8.1-7.6,11.8-2.4c0.8,1.1,0.6,2.2,2.4,2.8c0.9,0.3,3-0.3,3.7-2.5c0.5-1.4,1.8-3.2,3.4-3.3c4.8-0.1,3.5,10.3,7.5,11.5
	c3.7,1.1,5.9-5.5,12.7-5.1c5.9,0.4,5.1,9.4,11.7,8.9c7-0.5,4.6-8,6.3-9.3c2-1.6,5.6-0.5,7.7-2.9c2.3-2.6,2.8-5,1.1-8
	c-2.1-3.5-6.1-6.4-2.6-8.1c3.8-1.9,3.7,8.8,10.6,10.4c2.4,0.5,2.2,3.2,3.4,5.9c3.2,7.1,11.9,6.1,14.2,5.9c7.9-0.9,6.3-5.9,10.8-5.7
	c1.1,0,2.7,3.2,3,4.1c0.9,2.5,4.6,3,6.7,0.8c1.8-1.9-1.3-4.7,1.5-5.7c0.9-0.3,1.2,1.2,1.7,1.7c2.2,2,5,1.7,6.8-0.6
	c1.4-1.8,1.3-5,3.9-6.3c2.2-1.1,8.4,2,8.7-4c0.2-3.7-5.1-2.2-4.5-3.6c1.6-3.7-1.2-6.1-3.9-4c-2.2,1.7-3,3.7-5.2,3.3
	c-0.9-0.2-5.2-3.5-1.3-8.4c3-3.8,8.8-0.8,9.7-1c1.1-0.2,3.2-1.1,3-3.6c-0.1-2-2.3-2.9-4.1-2.2c-2.5,1-5.5,0.4-8.1-0.3
	c-3.7-1.1-7.4-11.9,1.3-16.1c6.6-3.2,8.7,3.2,10.7,2.9c1.1-0.2,2.2-0.2,2.3,1c0,0.6-1.9,3.5,0,5.3c2.2,1.9,3.7,1,4.3-0.7
	c0.7-1.8-2-6.9-1-8.3c1.1-1.5,4-1.6,5,0c1,1.5-0.2,2.3-0.4,3.7c-0.5,2.9,0.8,4.4,4.2,5.7c1.4,0.5,2.8,8.6,8.4,8.4
	c6.5-0.3,7.2-6.9,7.2-8.4c0-1.4,1-3.1,2.3-3.2c1.1-0.1,3.3,1.1,3.2,4.3c0,1.9,2.6,2.3,4.1,2.2c1.2-0.1,5.4-1.1,5.8-5.5
	c0.1-0.7,0.9-4.8,4.3-3.3c2.4,1.1,0.2,5.3-0.9,5.7c-2.4,1-3.8,2.6-3.4,4.3c0.6,2.4,3.9,3.9,7.6,2c1.6-0.9,2.2-3.3,3.7-3.9
	c2.6-0.9,5.3-1.1,7,0.1c4.7,3.1,1.9,10.7,6,10.6c4.5-0.1,8.7-3.7,12.1-2.5c1.7,0.6,2.6,3.8,1.5,5.1c-1.1,1.3-4.8,3.1-6.5,3.7
	c-0.6,0.2-3.7,2.1-3.3,4c0.7,3.4,9.6,2.1,13.3,0.7c3-1.2,4.9-3.7,6.1-5.6c3.6-6,12.1-6.2,14.5-6c1.8,0.1,3.4-0.3,5-1.1
	c1.8-0.9,3.6-3,5.7-3.1c2.8-0.1,15.5,5.8,24.2,3.8c3.7-0.9,4.3-3.5,7.1-4.5c4.2-1.5,24.1,0,30.3,1.3c4.5,1,16.8-3.9,19.4-2.2
	c1.7,1.1-0.6,2.9-0.4,6.1c0.2,2.8,3,7.3,6.3,8c3.4,0.8,9.8-0.4,12.2-3.9c2.4-3.6-2.4-8.5,2.6-9.8
	C649.3,305.5,753.1,308.1,761.8,309.1z M140.7,353.3c-3.5,1.8-6.1,5-10.1,6.1c-1.6,0.4-3,2.4-4.2,3.9c-2.8,3.3-6.9,0.8-10.2,2.7
	c-2.6,1.5-3.8-0.5-5.7,0.1c-2.8,1,1.8,4.5-2.2,7.6c-1.3,1-4.1,1.3-7-1.2c-0.8-0.7-3.2-3.3-0.1-5.8c1-0.8,0.9-2.8-0.3-3.4
	c-0.6-0.3-1.9-0.5-3,0.8c-0.8,0.9-0.5,4.5-3.4,3.5c-2.6-0.9-5,0.8-6.3-1.2s2.2-3.9,1.4-5.1c-0.8-1.1-1.6-1.7-3.4-1.9
	c-2.6-0.2-3.8,1.9-5.6,3.4c-1.8,1.5-4.4,0.2-6.4-2.5c-1.1-1.6-0.7-4.8,0.8-5.8c2-1.3,5.2-0.3,6.4-1.1c2.3-1.5,2.6-6.1,9.1-8.8
	c3.3-1.3,6.2,1.7,9.7,0c3.3-1.5,2.4-4.4,3.4-5c1.5-0.9,2.6-0.1,3.4-0.2c2.8-0.4,3.9-4.1,6.8-3.9c2.3,0.1,1.7,4.5,3.1,5.5
	c1.9,1.3,4.5,0,5.7-0.5c1.1-0.4,7.5-3.8,10.3-2.5c3.6,1.6,2.2,4,3.5,5.5c1.1,1.3,2.4,0.4,3.8,0.6c1.1,0.2,1.2,1.9,2,2.9
	C144.2,349.2,143.1,352,140.7,353.3z"/>
<path fill="#000923" d="M653.1,351.3c0.9,0,3.3,2.1,7.5,2.1c3.1,0,5.2-1.8,5.2-5c0-3.4-1.7-5.3-6.1-5.3h-1.5c-1.1,0-1.6-0.8-1.6-2.6
	v-0.9c0-1.8,0.5-2.6,1.6-2.6h1c3.4,0,5.4-1.7,5.4-4.3c0-2.6-1.4-4.2-4.2-4.2c-4,0-5.2,1.6-6.1,1.6c-1,0-2.6-2.6-2.6-4
	c0-2.6,4.9-3.8,10.1-3.8c6.5,0,10.7,3.5,10.7,9.1c0,3.6-1.9,6.4-4.8,7.6v0.2c4.1,1.6,6,5.1,6,9.3c0,6.9-4.8,11-11.8,11
	c-3.9,0-11.3-1-11.3-4.3C650.6,354.3,651.9,351.3,653.1,351.3z"/>
<path fill="#000923" d="M680.1,324.7c0-1.5,0.6-2.1,2.1-2.1h11.7c10.7,0,16.7,6.5,16.7,18.2c0,11.8-5.9,18.2-16.7,18.2h-11.7
	c-1.5,0-2.1-0.6-2.1-2.1V324.7z M693.9,352.3c5.6,0,8.4-4,8.4-11.4s-2.9-11.4-8.4-11.4h-5.7v22.8H693.9z"/>
<path fill="#000923" d="M742.4,342.2v-1.7c0-2-1.2-3-4.1-3c-3.8,0-6,1.7-6.7,1.7c-1.1,0-2.7-3.1-2.7-4.2c0-1.8,4.2-3.6,9.9-3.6
	c8.2,0,11.2,3.6,11.2,8.7v9.8c0,5.4,0.6,6.5,0.6,7.5c0,1.2-4.5,1.7-5.8,1.7c-1.7,0-1.8-2.2-2.1-3.6c-0.4,0.7-2.9,4-7.7,4
	c-5.6,0-7.7-3.3-7.7-7.6S729.1,342.2,742.4,342.2z M737.7,353.4c2,0,3.9-1.4,4.7-3.3v-2.9c-4.9,0-7.3,1.4-7.3,3.9
	C735.1,352.4,736,353.4,737.7,353.4z"/>
<path fill="#000923" d="M756.8,341c0-5.2-0.6-6.3-0.6-7.3c0-1.2,4.5-1.7,5.8-1.7c1.7,0,1.8,2.1,2.1,3.4c1.1-2,2.7-4,5.7-4
	c2.6,0,3,1.8,3,2.8s-0.6,4.4-1.6,4.4c-0.7,0-1.4-0.4-2.4-0.4c-2.1,0-3.5,1.6-4.2,2.6v16.7c0,1.1-0.9,1.7-3.1,1.7H760
	c-2.2,0-3.1-0.6-3.1-1.7L756.8,341L756.8,341z"/>
<path fill="#000923" d="M778,338h-0.8c-1.1,0-1.6-0.8-1.6-2.6v-0.9c0-1.8,0.5-2.6,1.6-2.6h0.8l0.7-4.9c0.2-1.1,1.1-1.7,2.8-1.7h1.6
	c1.8,0,2.6,0.6,2.6,1.7v4.9h2.6c1.1,0,1.6,0.8,1.6,2.6v0.9c0,1.8-0.5,2.6-1.6,2.6h-2.6v13.2c0,1.6,0.5,2.2,1.9,2.2
	c0.5,0,1.1-0.2,1.4-0.2c1,0,1.6,3.3,1.6,3.7c0,2.4-3.4,2.6-5,2.6c-4.9,0-7.6-2.7-7.6-8.4V338L778,338z"/>
<path fill="#000923" d="M795.4,325.7v-4.2c0-1.1,0.9-1.7,3.1-1.7h1.5c2.2,0,3.1,0.6,3.1,1.7v4.2c0,1.1-0.9,1.7-3.1,1.7h-1.5
	C796.3,327.4,795.4,326.8,795.4,325.7z M795.4,333.4c0-1.1,0.9-1.7,3.1-1.7h1.5c2.2,0,3.1,0.6,3.1,1.7v24.1c0,1.1-0.9,1.7-3.1,1.7
	h-1.5c-2.2,0-3.1-0.6-3.1-1.7V333.4z"/>
<path fill="#000923" d="M810.7,352c0.7,0,2.7,1.5,5.1,1.5c2.2,0,3.2-0.8,3.2-2.3c0-4.6-10.4-1.9-10.4-11.2c0-5.2,3.7-8.4,9.6-8.4
	c1.7,0,7.7,0.4,7.7,3.3c0,0.7-1.2,3.9-2.2,3.9c-0.5,0-2.1-1.1-4.4-1.1c-1.8,0-2.8,0.6-2.8,1.9c0,3.8,10.4,1.8,10.4,11.1
	c0,5.5-3.9,9.1-9.7,9.1c-4.5,0-9.1-1.2-9.1-3.7C808,354.8,809.7,352,810.7,352z"/>
<path fill="#000923" d="M832.1,338h-0.8c-1.1,0-1.6-0.8-1.6-2.6v-0.9c0-1.8,0.5-2.6,1.6-2.6h0.8l0.7-4.9c0.2-1.1,1.1-1.7,2.8-1.7
	h1.6c1.8,0,2.6,0.6,2.6,1.7v4.9h2.6c1.1,0,1.6,0.8,1.6,2.6v0.9c0,1.8-0.5,2.6-1.6,2.6h-2.6v13.2c0,1.6,0.5,2.2,1.9,2.2
	c0.5,0,1.1-0.2,1.4-0.2c1,0,1.6,3.3,1.6,3.7c0,2.4-3.4,2.6-5,2.6c-4.9,0-7.6-2.7-7.6-8.4V338L832.1,338z"/>
<path fill="#8F041F" d="M561.7,245.9c-5.6-17-9.4-35.2-11.2-53c-2-19.1-0.5-38.5,1.9-57.2c0.8-6.5,1.8-13,2.5-19.6
	c0.3-2.8,0.3-5.6,0.2-8.5c-0.1-1.6-0.2-7.3-2.6-7.8c-3.4-0.6-5.3,16-5.6,17.5c-0.9,4.9-1.7,9.8-2.6,14.6c0,0.2-0.1,0.3-0.1,0.4
	c0,0.1,0,0.2-0.1,0.3c-0.1,0.7-0.3,1.3-0.4,2c-0.3,1.4-0.6,2.7-0.9,4.1c-0.6,3-1.4,6-2.1,9c-4,15.7-13.4,45.5-35.5,41
	c-9.1-1.9-15.4-11.1-19.5-18.7c-5.6-10.4-9.1-21.5-12.1-32.7c-2.5-9.2-4.5-18.6-6.5-28c-0.5-2.5-1-5-2-7.4c-1.8-4.2-3.8,1.8-4.1,3.5
	c-2.6,12.9-1.2,26.9-0.3,40c1,15.3,2.3,30.5,3.5,45.7c2.3,29.2,4.6,58.6,10.8,87.3l0,0c0.7,3.4,2.5,3.2,3.3,0c1.1-4.3,0.9-9,0-13.3
	c-0.1-0.6-0.3-1.2-0.4-1.8c-0.1-0.6-0.3-1.3-0.4-1.9c0-0.1-0.1-0.3-0.1-0.4c-0.1-0.8-0.3-1.5-0.4-2.3c-1.3-7.1-2.4-14.2-3.4-21.4
	c-2.5-17.8-3.7-35.8-5.1-53.7c-1.2-15.3-2.6-30.6-3.5-46c-0.2-3.4-0.4-6.7-0.5-10.1c0,0,0,0,0-0.1s0-0.3,0-0.5c0-0.4,0-0.8,0-1.1
	c0.5,2.5,1.1,5.1,1.6,7.6c2.5,11.4,5.4,22.6,9.2,33.7c5.4,15.9,16.8,45.2,38.7,40c9.8-2.3,16.1-11.4,20.5-19.8
	c5.2-10.1,8.3-21.3,10.9-32.4c0,0.7-0.1,1.5-0.1,2.2c-1.2,21.2,0.1,42.2,3.8,63.2c2.7,15.3,6.3,30.3,11.3,45
	c1.7,4.9,3.7,5.1,6.1,9.7c1.8,3.5,2.7,2.9,2.9,1.4c0.5-3.7,1-9.4-0.8-12.9C565.8,258.2,563.7,252,561.7,245.9z"/>
<path fill="#8F041F" d="M876.9,251.5c0-0.4-1.2-8.8-2.9-6.6c-5.2,6.7-11.8,10.9-20.1,12.9c-7.3,1.8-16.4,2.5-22.9-2.1
	c-0.2-0.1-0.3-0.3-0.5-0.4c1.9-0.7,3.7-1.5,5.5-2.4c7.3-3.8,11.6-10.9,12.9-19.1c1.2-7.4,2-21-7.4-23.4c-7.2-1.9-13,3.6-16.2,9.3
	c-3.2,5.8-4.7,12.9-5.3,19.6c-4.6,0.8-9.2,1.1-13.6,1.1c-3.5,0-3.4,18.8,0,18.8c4.7,0,9.7-0.4,14.5-1.3c1.7,7.9,5.6,15.2,13.4,18.5
	c6.9,2.9,15.7,1.5,22.6-0.6c7.3-2.2,13.6-6.7,18.2-12.8C877.4,260.2,877.1,254.8,876.9,251.5z M827.3,236.7
	c2.7-5.5,8.5-8.9,14.5-7.4c-1.7,2.2-4.1,3.9-6.6,5.2c-2.6,1.4-5.5,2.5-8.5,3.3C827,237.5,827.2,237.1,827.3,236.7z"/>
<path fill="#8F041F" d="M659,259.1c-3.4,0.4-7.2-0.1-9.9-2.2c-4.7-3.8-6-10.2-7.2-15.8c-0.4-1.7-0.9-3.3-1.2-4.9
	c-0.1-0.5-0.2-0.9-0.2-1.4c-0.2-1.1-0.3-2.1-0.5-3.2c-0.7-5-1.3-10.1-1.8-15c-2.1-21.3-2.9-42.6-6.7-63.7c-0.2-1.2-1.6-7.1-3.2-3.4
	c-1.6,3.7-1.5,8.9-0.8,12.9c3.9,21.8,4.5,43.9,6.9,65.9c0.7,6.8,1.8,13.4,3.1,20c-4.7,4.8-10.4,7.9-17.2,9.6
	c-7.3,1.8-16.4,2.5-22.9-2.1c-0.2-0.1-0.3-0.3-0.5-0.4c1.9-0.7,3.7-1.5,5.5-2.4c7.3-3.8,11.6-10.9,12.9-19.1c1.2-7.4,2-21-7.4-23.4
	c-7.2-1.9-13,3.6-16.2,9.3c-3.2,5.8-4.7,12.9-5.3,19.6c-4.6,0.8-9.2,1.1-13.6,1.1c-3.5,0-3.4,18.8,0,18.8c4.7,0,9.7-0.4,14.5-1.3
	c1.7,7.9,5.6,15.2,13.4,18.5c6.9,2.9,15.7,1.5,22.6-0.6c7.1-2.1,13.2-6.5,17.8-12.2c2.9,8.1,8.3,15.5,17.9,14.2
	C663.1,277.3,661.8,258.7,659,259.1z M593.7,236.7c2.7-5.5,8.5-8.9,14.5-7.4c-1.7,2.2-4.1,3.9-6.6,5.2c-2.6,1.4-5.5,2.5-8.5,3.3
	C593.3,237.5,593.5,237.1,593.7,236.7z"/>
<path fill="#8F041F" d="M720.8,259.2c-5.4-0.7-10.1-2.7-13-7.6c-1.5-2.5-2.5-5.4-3.1-8.2c-0.1-0.6-0.2-1.3-0.3-1.9
	c0,0.1-0.2-1.8-0.2-1.9c0-0.4-0.1-0.7-0.1-1.1c0,0.1,0-0.2,0-0.6c0.3-6.5,0.4-13.4-1.3-19.7c-0.1-0.3-0.2-0.6-0.3-0.8
	s-0.1-0.4-0.2-0.6c-1-2.6-4.1-3.8-6.5-4.7c-3.8-1.4-8-2-12.1-1.7c-13.4,1-18.8,13.3-20.4,25.1c-2.1,14.6-1.1,34.9,14.7,41.5
	c4.5,1.9,9.8,1.8,14.2-0.3c5.2-2.5,7.4-7.4,8.7-12.8c0.4-1.7,0.7-3.3,1-5c0.6,2.1,1.3,4.1,2.1,6.1c3.1,7.5,8.7,11.9,16.7,12.9
	C723.6,278.3,724.8,259.7,720.8,259.2z M699.1,239.5c-0.2,2.2-0.2,2.7-0.4,4.6c-0.4,3.5-0.7,5.4-1.6,8.5c-0.2,0.9-2.1,3.3-3.7,4.5
	c-8.7,6.7-21.6,0-25.5-8.8c-0.4-1-0.6-1.8-0.7-2.5c0-0.1,0-0.2,0-0.4c0,1.4,0.1-0.8,0.1-0.6c0.3-2.5,1.1-5.2,2.6-7.6
	c2.6-4.2,6.8-6.8,11.6-7.7c4.1-0.8,8.5-0.3,12.5,0.8c1.3,0.4,3,1,4.1,1.6c0.4,0.2,0.9,0.5,1.3,0.8c0,0.4,0,0.7,0,1.1
	c-0.1,0.9-0.1,1.8-0.1,2.4c0,0.2,0,0.3,0,0.3C699.3,237.6,699.2,238.5,699.1,239.5z"/>
<path fill="#8F041F" d="M803.7,260.4c-6.2-4.2-10.3-10-12.9-16.9c-1-2.7-1.6-5.7-1.9-7.7c-0.1-0.8-0.2-1.5-0.3-2.3
	c0-0.2-0.1-1.1-0.2-1.4c-0.1-1.4-0.2-2.7-0.3-4.1c-0.3-5.2-0.2-10.6-1.9-15.6c-0.2-0.6-1.1-2.6-2.1-2.1c-2.4,1.2-2.4,5.9-2.6,8.1
	c-0.5,5,0.2,10.1,0.7,15.1c0.2,2.6,0.5,5.2,0.7,7.7c0.1,1.4,0.2,2.7,0.2,4.1c0,0.1,0,0.2,0,0.4c0,0.9,0,1.9,0,2.8c0,0.1,0,0.4,0,0.7
	c0,0.5-0.1,1.1-0.1,1.6c0,0.1,0,0.2,0,0.2v0.1c-0.1,0.5-0.1,1-0.2,1.5c0.1-1.1-0.7,2.2-0.5,1.7c-0.3,1-0.8,1.9-1.2,2.5
	c-2.3,3.4-6.7,4.3-10.4,2.6c-3.7-1.7-5.7-7.4-6.5-10.3c-1.7-5.6-2.1-9.5-2.8-15.9c-0.6-4.8-1-9.6-2-14.4c-0.7-3.4-3.2-7.7-4.7-1.9
	c-1.4,5.3-0.7,11.2-0.5,16.6c0,0.4,0.1,1.5,0.1,2.2c0,1,0.1,2.1,0.1,3.1c0,1.3,0,2.7,0,4c0,0.1,0,0.2,0,0.2l0,0
	c0,0.9-0.1,1.8-0.2,2.7c0,0.2-0.1,0.7-0.1,1.1c-0.1,0.5-0.1,1-0.2,1.4c0,0.1-0.2,0.9-0.2,1.2c-0.1,0.5-0.2,0.9-0.3,1.4
	c-0.4,1.4-1.1,3.6-2.4,5.5c-2.6,3.6-7.1,4.8-11.2,3.3c-8.9-3-12.4-16.9-14.4-24.5c-0.7-2.7-1.3-5.4-1.9-8.1c0-0.1,0-0.2-0.1-0.3
	c0-0.1,0-0.2-0.1-0.3c-0.1-0.6-0.2-1.2-0.3-1.8c-0.2-1.1-0.4-2.2-0.5-3.3c-0.3-1.7-0.5-3.3-0.7-5c-0.1-1.1-0.5-4.3,0-0.1
	c0-0.5-1-8.7-2.9-6.6c-2.3,2.5-1.9,8.5-1.6,11.6c0.9,8.4,2.3,16.8,4.3,25.1c2.4,10.1,5.9,23.9,14.9,30.4c3.7,2.7,8.4,3.1,12.4,0.7
	c4.4-2.7,6.4-8,7.7-12.7c1.1-4.1,1.8-8.2,2.2-12.5c0.5,3.2,1.2,6.4,2,9.5c1.4,5.1,3.3,10.7,7.1,14.4c3.1,3.1,7.7,3.7,11.5,1.5
	c4.2-2.4,5.9-7.7,6.9-12.1c0.7-2.9,1.1-5.9,1.4-8.9c2.7,8.8,7.3,16.7,15.1,22.1c2.3,1.6,2.8-5.6,2.9-6.6
	C805.5,269.5,806.1,262,803.7,260.4z"/>
<path fill="#8F041F" d="M783.3,203c3.5,0,3.5-18.8,0-18.8C779.9,184.2,779.9,203,783.3,203z"/>
<path fill="#8F041F" d="M1112.4,207.3c-6.6,0-10.9,5-13,10.8c-1.1,3.2-1.8,6.5-2.3,9.9c0,0.3-0.1,0.6-0.1,0.9
	c-0.2-0.5-0.5-1.1-0.6-1.6c-1-2.8-1.9-6.9-2.7-10.2c-2-8.8-3.1-17.5-3.9-25.5c-1.4-14.6-2.9-29.2-4.6-43.7c-0.1-1.3-1.7-7.4-3.3-3.5
	c-1.7,4-1.3,9.1-0.9,13.4c1.4,13,2.6,24.2,3.9,37.2c1.6,16.8,3.3,34.6,9.4,50.5c0.6,1.6,1.4,3.7,3.2,4.3c1.7,0.6,2.6-4,2.8-4.8
	c0.5-2.5,0.8-5.1,1.2-7.6c0-0.1,0.1-0.7,0.2-1c0.1-0.5,0.2-1,0.4-1.5c0.2-0.6,0.6-1.9,1.3-3c3.6-5.7,10.8-5.7,16.4-3.4
	c6.3,2.5,11.4,8.7,14.8,14.4c1.5,2.5,2.8,5.2,3.6,8c0.1,0.5,0.3,0.9,0.4,1.4c-0.6,1-1.5,1.8-2.3,2.6c-2.3,2.2-5.2,3.2-8.4,3.6
	c-8.9,1-18.6-4.7-25.2-10.3c-2.3-1.9-3,6-3,6.8c-0.2,2.8-0.8,9.8,1.7,12c7.5,6.4,18.7,12.8,28.8,10.6c17.8-3.8,14.9-30.2,10.6-42.8
	C1136.8,222.6,1126.6,207.2,1112.4,207.3z M1139.1,250.9L1139.1,250.9L1139.1,250.9L1139.1,250.9z"/>
<path fill="#8F041F" d="M1090.8,259.2c-3.8-1.4-7-4.3-9.4-7.4c-3-3.8-3.6-8.5-4.3-12.6c-1-5.7-1.7-11.4-2.4-17.1c0-0.1,0-0.3,0-0.4
	c0-0.1-0.1-1-0.1-1.3c-0.1-0.9-0.2-1.7-0.3-2.6c-0.1-0.8-0.1-1.5-0.2-2.3c0-0.5-0.9-8.2-2.7-7.1c-0.3-0.2-0.6-0.1-1,0.3
	c-2.4,2.6-2,8.9-1.7,12c0.3,2.7,0.6,5.4,0.9,8.1c0.1,1.1,0.3,2.3,0.4,3.4c0,0,0,0,0,0.1s0,0.3,0.1,0.5c0.1,0.8,0.1,1.5,0.2,2.3
	c0.1,1.3,0.2,2.6,0.3,3.9v0.1c0,0.1,0,0.3,0,0.5c0,0.8,0,1.5,0,2.3c0,0.6-0.1,1.2-0.1,1.7c0.1-1-0.1,1-0.2,1.3c0,0.1,0,0.3-0.1,0.4
	c0,0.1-0.1,0.3-0.1,0.6c-1.9,8.5-13.2,16.7-22,10.7c-3.5-2.4-5.4-6.4-6.9-10.2c-0.6-1.7-1.2-4.1-1.8-6.5c-0.4-2-0.1-0.2-0.4-2.2
	c-0.2-1.4-0.4-2.8-0.6-4.2c-0.1-0.4-0.1-0.9-0.2-1.3c0-0.1,0-0.2,0-0.4c-0.1-1.3-0.2-2.6-0.3-3.9c-0.1-1-0.1-2-0.2-3
	c0-0.1,0-0.3,0-0.5s0-0.5,0-0.7c0-0.6,0-1.1,0-1.7c0.3-2.1,0.1-4.5,0-6.3c0-2.4-0.2-5-1.2-7c-0.2-0.4-0.3-0.6-0.5-0.8l0,0l-0.1-0.1
	l-0.1-0.1c0,0,0,0-0.1,0c-0.3-0.2-0.7-0.2-1.1,0.2c-7,6.5-17.1,14.9-27.2,13.5c-6-0.8-9.8-6.7-15.1-9.2c-4.5-2.1-10.9-1.2-15,1.7
	c-0.3-1.5-0.6-2.9-0.9-4.4c-0.8-3.5-2.6-3.3-3.5,0c-1.1,4.4-1,9.4,0,13.8c1.5,6.9,2.9,13.8,3.9,20.7c-3.3,3.8-7.6,6.1-12.2,7.9
	c-0.1-4.4-0.1-7.9,0.1-11.2c0.1-1.5,0.2-3,0.4-4.5c0-0.1,0.1-1.3,0.2-1.5c0.1-0.9,0.2-1.8,0.4-2.8c0.6-4.3,1.6-8.5,2-12.8
	c0.3-2.8,1.2-14-3.4-14.5c-2.9-0.3-4.8,5.3-5.6,7.2c-4.3,9.7-8.7,20.7-20,23.8c-9.7,2.6-20.4-2-28.3-7.4
	c-10.9-7.4-18.7-18.6-21.8-31.4c-0.4-1.6-0.6-3.3-0.8-5c-0.1-0.8-0.2-3-0.2-3.8c0-4.2,0.6-9.2,1.3-13.9c1.2-8.8,3-17.5,5.7-25.9
	c3.3-10.5,8.7-21.1,17.3-28.2c10.6-8.8,24.8-8.4,36.9-3.2c2.9,1.2,4.2,1.8,6.7,3.6c2.4,1.7,2.9-5.8,3-6.8c0.2-2.5,0.9-10.2-1.7-12
	c-6.8-4.7-15.4-7.6-23.6-8c-19.9-0.9-32.5,15.9-39.1,32.6c-7.2,18.2-10.6,38.9-11.2,58.4c-0.5,17.5,2.7,35.6,13.3,50
	c12,16.3,39.9,31.5,55.8,11.8c3.5-4.3,5.9-9.5,8-14.6c0.2-0.6,0.5-1.1,0.7-1.7c-0.1,1.5-0.3,3-0.4,4.5c-0.5,6.4-0.5,12.7-0.3,19
	c-0.7,0.2-1.4,0.4-2.1,0.7c-6.5,2.1-12.1,4.8-17.5,9c-13.3,10.6-22.7,26.5-26.3,43.1c-4.7,21.8-0.5,44.4,10.4,63.7
	c7.4,13.1,17.9,25.9,31.6,32.7c4.2,2.1,8.6,3.1,12.7,0.2c6.1-4.3,7.5-15.1,8.6-21.8c1.9-11.5,2.1-23.4,2.2-35.1
	c0.1-12-1.2-23.8-3.5-35.6c-2.1-10.6-5-21.1-7.6-31.6c-0.7-2.9-1.3-5.7-1.8-8.4c4.2-1.8,8.1-4,11.2-7.4c0,2.6,0,5.2-0.1,7.8
	c0,1.3-0.1,9.8,2.4,9.8c2.6,0,2.4-8.4,2.4-9.8c0.3-9.7,0.3-19.5-0.6-29.2c-0.3-3.4-0.8-6.8-1.3-10.2c3.9-1.6,9.1-1.3,12.5,0.5
	c5.5,2.9,8.7,8.1,15.3,8.9c6.3,0.8,12.8-3.4,17.8-6.7c2.3-1.5,4.6-3.2,6.7-5c0.2,4.5,0.7,9,1.2,13.5c1.2,10.5,3.4,25.3,12.2,32.4
	c4.3,3.5,9.9,3.3,14.9,1.4c5.8-2.2,9.3-7.5,11.2-13.1c0.8-2.4,1.4-4.8,1.8-7.3c2.3,9.7,6.3,19,16.5,22.7
	C1092.4,279.3,1095.6,260.9,1090.8,259.2z M966.1,297.5c2.6,10.4,5.4,20.8,7.2,31.3c1.7,10,1.4,19.8,0.9,29.9
	c-0.4,7.3-0.4,16.6-4.7,23c-3,4.5-7.5,4-12,2.3c-6-2.4-11.1-6.9-15.7-11.3c-6.2-6-11.5-13-15.7-20.5c-4.3-7.6-8.4-16.7-9.2-25.5
	c-0.2-1.7-0.1-1.9,0-4.1c0.1-1.3,0.5-3.1,0.8-4.6c1-4.4,2.8-8.7,4.8-12.8c6.3-12.7,17.6-25.4,31.3-30.2c2.4-0.9,4.9-1.7,7.4-2.5
	C962.4,280.9,964.1,289.2,966.1,297.5z"/>
<path fill="#8F041F" d="M1280.1,223.9c0-0.6-0.5-10.7-2.4-9.8c-3.7,1.7-7.6,3.2-11.5,4.5c-5.9,2-13,4.1-19.1,1.9
	c-5-1.8-8.2-6.8-13.2-8.7c-3.7-1.4-9.1-1.1-12.7,1c-0.2-1.1-0.5-2.3-0.7-3.4c-0.8-3.5-2.6-3.3-3.5,0c-1.1,4.4-1,9.4,0,13.8
	c1.5,7.1,3,14.2,4,21.3c-5.3,6.4-11.9,10.4-20,12.4c-7.6,1.8-17.1,2.6-23.8-2.2c-0.2-0.1-0.3-0.3-0.5-0.4c2-0.7,3.8-1.5,5.7-2.5
	c7.6-4,12.1-11.4,13.4-19.8c1.2-7.7,2.1-21.8-7.7-24.4c-7.5-2-13.5,3.8-16.8,9.7c-3.4,6-4.9,13.4-5.5,20.4
	c-4.7,0.8-9.6,1.1-14.1,1.2c-3.6,0-3.6,19.6,0,19.5c4.9,0,10-0.4,15.1-1.4c1.8,8.2,5.8,15.8,13.9,19.2c7.2,3,16.3,1.5,23.5-0.6
	c7-2.1,13.1-6.3,17.7-11.8c0,2.4,0,4.7-0.1,7.1c0,1.3-0.1,9.8,2.4,9.8c2.6,0,2.4-8.4,2.4-9.8c0.3-9.7,0.3-19.5-0.6-29.2
	c-0.3-3.6-0.8-7.2-1.4-10.8c3-0.7,6.7-0.3,9.3,0.5c5,1.5,8.4,6.6,13.2,8.7c5.8,2.5,13.4-0.1,19.1-1.9c3.9-1.3,7.8-2.8,11.5-4.5
	C1280.4,232.4,1280.1,226.3,1280.1,223.9z M1173.3,235c2.8-5.7,8.9-9.3,15.1-7.7c-1.8,2.3-4.3,4.1-6.8,5.4c-2.7,1.4-5.7,2.6-8.8,3.5
	C1172.9,235.8,1173.1,235.4,1173.3,235z"/>
</svg>
