<svg xmlns="http://www.w3.org/2000/svg" xmlns:xlink="http://www.w3.org/1999/xlink" width="24" height="23.4" viewBox="0 0 24 23.3999424">
    <defs>
        <path id="a" d="M1 1v21.4h22V1z"/>
        <filter id="b" filterUnits="userSpaceOnUse" x="-4.289" y="-4.437" width="32.579" height="32.275">
            <feColorMatrix values="1 0 0 0 0 0 1 0 0 0 0 0 1 0 0 0 0 0 1 0"/>
        </filter>
        <path id="d" d="M21.563 27.84L-4.29 21.002l6.727-25.44L28.29 2.4z"/>
    </defs>
    <clipPath id="c">
        <use xlink:href="#a" overflow="visible"/>
    </clipPath>
    <mask maskUnits="userSpaceOnUse" x="-4.289" y="-4.437" width="32.579" height="32.275" id="g">
        <g filter="url(#b)">
            <clipPath id="e" clip-path="url(#c)">
                <use xlink:href="#d" overflow="visible"/>
            </clipPath>
            <radialGradient id="f" cx="-280.422" cy="430.973" r="1.035" gradientTransform="matrix(13.403 3.544 3.544 -13.403 2240.915 6778.408)" gradientUnits="userSpaceOnUse">
                <stop offset="0" stop-color="#D9D9D9"/>
                <stop offset=".767" stop-color="#fff"/>
                <stop offset="1" stop-color="#fff"/>
            </radialGradient>
            <path clip-path="url(#e)" fill="url(#f)" d="M-2.16-12.488l38.426 10.16L26.16 35.89l-38.425-10.16z"/>
        </g>
    </mask>
    <radialGradient id="h" cx="-280.422" cy="430.973" r="1.035" gradientTransform="matrix(13.403 3.544 3.544 -13.403 2240.916 6778.409)" gradientUnits="userSpaceOnUse">
        <stop offset="0" stop-color="#253500"/>
        <stop offset=".767" stop-color="#253500"/>
        <stop offset="1" stop-color="#253500"/>
    </radialGradient>
    <rect fill="#253500" width="100%" height="100%"/>
    <path clip-path="url(#c)" mask="url(#g)" fill="url(#h)" d="M2.437-4.437L28.29 2.4l-6.727 25.438-25.852-6.836z"/>
    <path fill="#C0D700" d="M1 1h22v21.4H1V1zM0 23.4h24V0H0v23.4z"/>
    <path fill-rule="evenodd" clip-rule="evenodd" fill="#C0D700" d="M4.077 5.326H6.42c.082 0 .115.017.132.1.413 1.534 1.6 6.517 1.88 8.2h.017c.313-1.534 1.7-6.58 2.13-8.196.015-.082.048-.104.13-.104h2.26c.083 0 .1.016.116.082l.397 10.81c.016.1-.033.133-.116.133h-1.6c-.1 0-.117-.045-.117-.127-.065-3.53-.065-8.523-.065-9.397h-.016c-.283 1.403-1.734 7.037-2.36 9.397-.018.1-.067.128-.134.128h-1.45c-.084 0-.134-.028-.15-.11-.61-2.46-1.732-7.55-2.112-9.414H5.33c0 1.303-.13 5.816-.263 9.397 0 .1-.05.128-.115.128H3.5c-.1 0-.132-.032-.132-.115l.593-10.81c.018-.083.035-.1.117-.1m16.573 9.35c0 .117.017.463.05 1.024 0 .066-.007.1-.073.114-.875.33-1.844.677-3.065.677-1.5 0-2.937-.577-2.937-2.887v-5.27c0-.083.033-.132.116-.132h1.57c.082 0 .115.05.115.133v5.056c0 .973.368 1.5 1.39 1.5.414 0 .788-.08 1.035-.18V8.332c0-.083.033-.132.116-.132h1.568c.1 0 .116.05.116.133v6.343z"/>
</svg>
