<svg xmlns="http://www.w3.org/2000/svg" xmlns:xlink="http://www.w3.org/1999/xlink" width="24" height="23.401" viewBox="0 0 24 23.401001">
    <defs>
        <path id="a" d="M1 1v21.402h22V1z"/>
        <filter id="b" filterUnits="userSpaceOnUse" x="-4.29" y="-4.437" width="32.579" height="32.276">
            <feColorMatrix values="1 0 0 0 0 0 1 0 0 0 0 0 1 0 0 0 0 0 1 0"/>
        </filter>
        <path id="d" d="M21.563 27.84L-4.29 21.002 2.438-4.435 28.29 2.4z"/>
    </defs>
    <clipPath id="c">
        <use xlink:href="#a" overflow="visible"/>
    </clipPath>
    <mask maskUnits="userSpaceOnUse" x="-4.29" y="-4.437" width="32.579" height="32.276" id="g">
        <g filter="url(#b)">
            <clipPath id="e" clip-path="url(#c)">
                <use xlink:href="#d" overflow="visible"/>
            </clipPath>
            <radialGradient id="f" cx="-271.011" cy="395.663" r="1.035" gradientTransform="matrix(13.403 3.544 3.544 -13.403 2239.915 6271.79)" gradientUnits="userSpaceOnUse">
                <stop offset="0" stop-color="#D9D9D9"/>
                <stop offset=".767" stop-color="#fff"/>
                <stop offset="1" stop-color="#fff"/>
            </radialGradient>
            <path clip-path="url(#e)" fill="url(#f)" d="M-2.16-12.487l38.426 10.16L26.16 35.89l-38.425-10.16z"/>
        </g>
    </mask>
    <radialGradient id="h" cx="-271.011" cy="395.663" r="1.035" gradientTransform="matrix(13.403 3.544 3.544 -13.403 2239.916 6271.79)" gradientUnits="userSpaceOnUse">
        <stop offset="0" stop-color="#2D3334"/>
        <stop offset=".767" stop-color="#2D3334"/>
        <stop offset="1" stop-color="#2D3334"/>
    </radialGradient>
    <rect fill="#2D3334" width="100%" height="100%"/>
    <path clip-path="url(#c)" mask="url(#g)" fill="url(#h)" d="M2.437-4.437L28.29 2.4l-6.727 25.44-25.853-6.837z"/>
    <path fill="#C2D5DC" d="M1 1h22v21.402H1V1zM0 23.4h24V0H0v23.4z"/>
    <path fill-rule="evenodd" clip-rule="evenodd" fill="#C2D5DC" d="M6.65 16.326c-.117 0-.15-.05-.15-.15V5.434c0-.083.033-.132.116-.132H8.2c.083 0 .1.034.1.117v9.26h4.125c.083 0 .106.032.09.114l-.247 1.42c-.017.083-.067.116-.15.116H6.65zm7.4-6.476c0-.116 0-.413-.05-.974 0-.083.02-.1.084-.132.61-.247 2.058-.692 3.675-.692.082 0 .115.016.115.098v1.453c0 .082-.033.1-.116.1-.627-.034-1.563.048-1.91.196v6.31c0 .083-.033.116-.116.116h-1.568c-.083 0-.116-.033-.116-.116V9.85z"/>
</svg>
