<svg xmlns="http://www.w3.org/2000/svg" xmlns:xlink="http://www.w3.org/1999/xlink" width="24" height="23.4" viewBox="0 0 24 23.3999271">
    <defs>
        <path id="a" d="M1 1v21.4h22V1z"/>
        <filter id="b" filterUnits="userSpaceOnUse" x="-4.289" y="-4.437" width="32.578" height="32.274">
            <feColorMatrix values="1 0 0 0 0 0 1 0 0 0 0 0 1 0 0 0 0 0 1 0"/>
        </filter>
        <path id="d" d="M21.563 27.838L-4.29 21.002l6.727-25.44L28.29 2.4z"/>
    </defs>
    <clipPath id="c">
        <use xlink:href="#a" overflow="visible"/>
    </clipPath>
    <mask maskUnits="userSpaceOnUse" x="-4.289" y="-4.437" width="32.578" height="32.274" id="g">
        <g filter="url(#b)">
            <clipPath id="e" clip-path="url(#c)">
                <use xlink:href="#d" overflow="visible"/>
            </clipPath>
            <radialGradient id="f" cx="-272.99" cy="402.866" r="1.035" gradientTransform="matrix(13.403 3.544 3.544 -13.403 2240.924 6375.365)" gradientUnits="userSpaceOnUse">
                <stop offset="0" stop-color="#D9D9D9"/>
                <stop offset=".767" stop-color="#fff"/>
                <stop offset="1" stop-color="#fff"/>
            </radialGradient>
            <path clip-path="url(#e)" fill="url(#f)" d="M-2.16-12.49L36.267-2.327 26.16 35.89l-38.425-10.162z"/>
        </g>
    </mask>
    <radialGradient id="h" cx="-272.99" cy="402.866" r="1.035" gradientTransform="matrix(13.403 3.544 3.544 -13.403 2240.923 6375.365)" gradientUnits="userSpaceOnUse">
        <stop offset="0" stop-color="#3E0000"/>
        <stop offset=".767" stop-color="#370000"/>
        <stop offset="1" stop-color="#370000"/>
    </radialGradient>
    <rect fill="#3E0000" width="100%" height="100%"/>
    <path clip-path="url(#c)" mask="url(#g)" fill="url(#h)" d="M2.437-4.437L28.29 2.4l-6.727 25.437L-4.29 21z"/>
    <path fill="#E1312B" d="M1 1h22v21.4H1V1zM0 23.4h24V0H0v23.4z"/>
    <path fill-rule="evenodd" clip-rule="evenodd" fill="#E1312B" d="M8.725 16.196c0 .1-.033.13-.116.13H7.04c-.082 0-.115-.034-.115-.133V5.44c0-.082.033-.115.116-.115h5.483c.1 0 .116.033.132.116l.165 1.378c.016.1-.033.132-.132.132H8.725v3.125h3.573c.083 0 .102.016.102.115v1.395c0 .098-.033.115-.115.115h-3.56v4.496zm5.9-10.772c0-.066.017-.1.116-.1h1.553c.1 0 .132.034.132.1v8.98c0 .395.148.543.445.543.133 0 .19-.016.272-.033.066 0 .083.017.083.1v1.17c0 .1-.017.133-.083.166-.214.083-.52.115-.867.115-.875 0-1.65-.33-1.65-1.914V5.425z"/>
</svg>
