<svg xmlns="http://www.w3.org/2000/svg" width="24" height="23.4" viewBox="0 0 24 23.3999615">
    <rect fill="#fff" width="100%" height="100%"/>
    <path fill-rule="evenodd" clip-rule="evenodd" fill="#E0142D" d="M12.69 3.68c-.19-.676-.653-1.017-1.04-.967-.474.062-.97.338-1.168.78-.56 1.256.61 4.972.79 5.592C10.133 12.52 6.23 19.33 4.318 19.788c-.038-.45.198-1.748 2.72-3.372.13-.136.28-.31.35-.416-2.127 1.035-4.895 2.707-3.232 3.954.093.07.234.136.385.192 1.274.472 3.048-1.07 4.837-4.56 1.974-.65 3.565-1.145 5.806-1.476 2.464 1.665 4.108 2.006 5.228 1.582.31-.116.804-.505.94-1.024-.91 1.118-3.038.34-4.737-.725 1.568-.165 3.192-.274 3.89-.05.886.283.863.718.846.775.072-.238.17-.63-.022-.94-.748-1.217-4.19-.51-5.44-.38-1.973-1.192-3.328-3.31-3.875-4.84.52-1.974 1.075-3.41.675-4.828m-.852 4.133c-.333-1.167-.79-3.77-.05-4.613 1.452.83.552 2.798.05 4.613m2.714 5.797c-1.903.355-3.19.842-5.044 1.573.546-1.07 1.586-3.8 2.09-5.602.7 1.4 1.55 2.774 2.954 4.03"/>
</svg>
