<svg xmlns="http://www.w3.org/2000/svg" xmlns:xlink="http://www.w3.org/1999/xlink" width="24" height="23.401" viewBox="0 0 24 23.4009686">
    <defs>
        <path id="a" d="M1 1v21.402h22V1z"/>
        <filter id="b" filterUnits="userSpaceOnUse" x="-4.29" y="-4.437" width="32.579" height="32.276">
            <feColorMatrix values="1 0 0 0 0 0 1 0 0 0 0 0 1 0 0 0 0 0 1 0"/>
        </filter>
        <path id="d" d="M21.563 27.84L-4.29 21.002l6.727-25.44L28.29 2.4z"/>
    </defs>
    <clipPath id="c">
        <use xlink:href="#a" overflow="visible"/>
    </clipPath>
    <mask maskUnits="userSpaceOnUse" x="-4.29" y="-4.437" width="32.579" height="32.276" id="g">
        <g filter="url(#b)">
            <clipPath id="e" clip-path="url(#c)">
                <use xlink:href="#d" overflow="visible"/>
            </clipPath>
            <radialGradient id="f" cx="-275.518" cy="412.835" r="1.035" gradientTransform="matrix(13.403 3.544 3.544 -13.403 2239.475 6517.931)" gradientUnits="userSpaceOnUse">
                <stop offset="0" stop-color="#D9D9D9"/>
                <stop offset=".767" stop-color="#fff"/>
                <stop offset="1" stop-color="#fff"/>
            </radialGradient>
            <path clip-path="url(#e)" fill="url(#f)" d="M-2.16-12.487l38.426 10.16L26.16 35.89l-38.425-10.16z"/>
        </g>
    </mask>
    <radialGradient id="h" cx="-275.518" cy="412.835" r="1.035" gradientTransform="matrix(13.403 3.544 3.544 -13.403 2239.476 6517.931)" gradientUnits="userSpaceOnUse">
        <stop offset="0" stop-color="#002F2A"/>
        <stop offset=".767" stop-color="#002F2A"/>
        <stop offset="1" stop-color="#002F2A"/>
    </radialGradient>
    <rect fill="#002F2A" width="100%" height="100%"/>
    <path clip-path="url(#c)" mask="url(#g)" fill="url(#h)" d="M2.437-4.437L28.29 2.4l-6.727 25.44-25.853-6.837z"/>
    <path fill="#4DC0AF" d="M1 1h22v21.402H1V1zM0 23.4h24V0H0v23.4z"/>
    <path fill-rule="evenodd" clip-rule="evenodd" fill="#4DC0AF" d="M5.3 15.878c-.066-.05-.1-.116-.1-.216v-1.584c0-.05.066-.098.132-.05.743.513 1.61.744 2.435.744 1.204 0 1.7-.627 1.7-1.337 0-.627-.314-1.138-1.47-1.815l-.593-.313c-1.7-.957-2.194-1.93-2.194-3.168 0-1.684 1.17-3.037 3.382-3.037.973 0 1.697.148 2.11.38.08.032.1.082.1.18V7.15c0 .065-.068.115-.134.065-.512-.33-1.268-.495-2.043-.495-1.27 0-1.683.726-1.683 1.303 0 .627.313 1.09 1.452 1.716l.528.28c1.88 1.04 2.36 2.046 2.36 3.284 0 1.83-1.337 3.1-3.515 3.1-.973 0-1.858-.18-2.468-.526m13.6-1.156c0 .726-.066 1.353-.165 1.832-.495 2.062-2.09 2.574-3.657 2.574-.71 0-1.443-.116-2.02-.396-.066-.05-.083-.1-.083-.166V17c0-.084.033-.116.083-.067.676.363 1.393.512 2.053.512 1.155 0 1.915-.577 1.964-1.816-.33.132-.643.198-1.073.198-1.946 0-3.43-1.287-3.43-3.795 0-2.195 1.353-4.043 3.96-4.043.94 0 1.815.2 2.375.413.05.033.06.05.06.1-.048.38-.065.774-.065.94v5.28zm-1.8-5.065c-.18-.083-.446-.133-.71-.133-1.336 0-1.99 1.057-1.99 2.393 0 1.634.836 2.31 1.908 2.31.313 0 .56-.033.792-.15v-4.42z"/>
</svg>
