<svg xmlns="http://www.w3.org/2000/svg" xmlns:xlink="http://www.w3.org/1999/xlink" width="24" height="23.4" viewBox="0 0 24 23.3999577">
    <defs>
        <path id="a" d="M1 1v21.4h22V1z"/>
        <filter id="b" filterUnits="userSpaceOnUse" x="-4.289" y="-4.438" width="32.579" height="32.275">
            <feColorMatrix values="1 0 0 0 0 0 1 0 0 0 0 0 1 0 0 0 0 0 1 0"/>
        </filter>
        <path id="d" d="M21.563 27.838L-4.29 21.002l6.727-25.44L28.29 2.4z"/>
    </defs>
    <clipPath id="c">
        <use xlink:href="#a" overflow="visible"/>
    </clipPath>
    <mask maskUnits="userSpaceOnUse" x="-4.289" y="-4.438" width="32.579" height="32.275" id="g">
        <g filter="url(#b)">
            <clipPath id="e" clip-path="url(#c)">
                <use xlink:href="#d" overflow="visible"/>
            </clipPath>
            <radialGradient id="f" cx="-274.903" cy="410.508" r="1.035" gradientTransform="matrix(13.403 3.544 3.544 -13.403 2239.463 6484.517)" gradientUnits="userSpaceOnUse">
                <stop offset="0" stop-color="#D9D9D9"/>
                <stop offset=".767" stop-color="#fff"/>
                <stop offset="1" stop-color="#fff"/>
            </radialGradient>
            <path clip-path="url(#e)" fill="url(#f)" d="M-2.16-12.49L36.267-2.327 26.16 35.89l-38.425-10.162z"/>
        </g>
    </mask>
    <radialGradient id="h" cx="-274.903" cy="410.508" r="1.035" gradientTransform="matrix(13.403 3.544 3.544 -13.403 2239.463 6484.515)" gradientUnits="userSpaceOnUse">
        <stop offset="0" stop-color="#2D0029"/>
        <stop offset=".767" stop-color="#2D0029"/>
        <stop offset="1" stop-color="#2D0029"/>
    </radialGradient>
    <rect fill="#2D0029" width="100%" height="100%"/>
    <path clip-path="url(#c)" mask="url(#g)" fill="url(#h)" d="M2.437-4.438L28.29 2.398l-6.727 25.44L-4.29 21z"/>
    <path fill-rule="evenodd" clip-rule="evenodd" fill="#B279A8" d="M0 23.4h24V0H0v23.4zM1 1h22v21.4H1V1zM6.225 5.478c0-.066.016-.116.1-.116.643-.033 1.583-.05 2.573-.05 2.772 0 3.976 1.518 3.976 3.465 0 2.542-1.838 3.63-4.1 3.63-.378 0-.51-.016-.774-.016v3.844c0 .083-.033.116-.116.116H6.34c-.082 0-.115-.033-.115-.116V5.478zM8 10.79c.23.017.413.017.808.017 1.172 0 2.268-.413 2.268-1.997 0-1.27-.782-1.914-2.12-1.914-.395 0-.775.017-.956.033v3.86zm6.4-.907c0-.116 0-.413-.05-.973 0-.083.012-.1.078-.133.61-.247 2.04-.692 3.656-.692.083 0 .116.017.116.098v1.453c0 .083-.027.1-.11.1-.625-.034-1.543.048-1.89.197v6.3c0 .084-.033.117-.116.117h-1.568c-.083 0-.116-.033-.116-.116v-6.35z"/>
</svg>
