<svg xmlns="http://www.w3.org/2000/svg" xmlns:xlink="http://www.w3.org/1999/xlink" width="24" height="23.4" viewBox="0 0 24 23.3999996">
    <defs>
        <path id="a" d="M1 1v21.4h22V1z"/>
        <filter id="b" filterUnits="userSpaceOnUse" x="-4.289" y="-4.437" width="32.579" height="32.275">
            <feColorMatrix values="1 0 0 0 0 0 1 0 0 0 0 0 1 0 0 0 0 0 1 0"/>
        </filter>
        <path id="d" d="M21.563 27.84L-4.29 21.002l6.727-25.44L28.29 2.4z"/>
    </defs>
    <clipPath id="c">
        <use xlink:href="#a" overflow="visible"/>
    </clipPath>
    <radialGradient id="h" cx="-279.019" cy="425.972" r="1.035" gradientTransform="matrix(13.403 3.544 3.544 -13.403 2239.836 6706.409)" gradientUnits="userSpaceOnUse">
        <stop offset="0" stop-color="#380012"/>
        <stop offset=".767" stop-color="#380012"/>
        <stop offset="1" stop-color="#380012"/>
    </radialGradient>
    <mask maskUnits="userSpaceOnUse" x="-4.289" y="-4.437" width="32.579" height="32.275" id="g">
        <g filter="url(#b)">
            <clipPath id="e" clip-path="url(#c)">
                <use xlink:href="#d" overflow="visible"/>
            </clipPath>
            <radialGradient id="f" cx="-279.019" cy="425.972" r="1.035" gradientTransform="matrix(13.403 3.544 3.544 -13.403 2239.835 6706.408)" gradientUnits="userSpaceOnUse">
                <stop offset="0" stop-color="#D9D9D9"/>
                <stop offset=".767" stop-color="#fff"/>
                <stop offset="1" stop-color="#fff"/>
            </radialGradient>
            <path clip-path="url(#e)" fill="url(#f)" d="M-2.16-12.488l38.426 10.16L26.16 35.89l-38.425-10.16z"/>
        </g>
    </mask>
    <rect fill="#380012" width="100%" height="100%"/>
    <path clip-path="url(#c)" mask="url(#g)" fill="url(#h)" d="M2.437-4.437L28.29 2.4l-6.727 25.438-25.852-6.836z"/>
    <path fill="#E23386" d="M1 1h22v21.4H1V1zM0 23.4h24V0H0v23.4z"/>
    <path fill-rule="evenodd" clip-rule="evenodd" fill="#E23386" d="M8.775 16.22c0 .098-.016.13-.132.13H7.108c-.1 0-.133-.048-.133-.13V5.482c0-.1.05-.132.133-.132h1.55c.084 0 .117.034.117.116V16.22zm1.77-3.874c0-2.393 1.577-4.257 4.103-4.257.214 0 .33 0 .527.016V5.45c0-.066.05-.1.1-.1H16.9c.084 0 .1.034.1.083v9.355c0 .28 0 .627.05 1.007 0 .066-.02.082-.087.115-.86.412-1.766.594-2.624.594-2.212 0-3.796-1.37-3.796-4.158m4.63-2.623c-.148-.067-.345-.1-.593-.1-1.286 0-2.188.99-2.188 2.64 0 1.88.92 2.64 2.073 2.64.248 0 .513-.032.71-.115V9.723z"/>
</svg>
