<svg xmlns="http://www.w3.org/2000/svg" xmlns:xlink="http://www.w3.org/1999/xlink" width="24" height="23.401" viewBox="0 0 24 23.401001">
    <defs>
        <path id="a" d="M1 1v21.402h22V1z"/>
        <filter id="b" filterUnits="userSpaceOnUse" x="-4.29" y="-4.437" width="32.579" height="32.276">
            <feColorMatrix values="1 0 0 0 0 0 1 0 0 0 0 0 1 0 0 0 0 0 1 0"/>
        </filter>
        <path id="d" d="M21.563 27.84L-4.29 21.002 2.438-4.435 28.29 2.4z"/>
    </defs>
    <clipPath id="c">
        <use xlink:href="#a" overflow="visible"/>
    </clipPath>
    <mask maskUnits="userSpaceOnUse" x="-4.29" y="-4.437" width="32.579" height="32.276" id="g">
        <g filter="url(#b)">
            <clipPath id="e" clip-path="url(#c)">
                <use xlink:href="#d" overflow="visible"/>
            </clipPath>
            <radialGradient id="f" cx="-269.805" cy="391.228" r="1.035" gradientTransform="matrix(13.403 3.544 3.544 -13.403 2239.475 6208.07)" gradientUnits="userSpaceOnUse">
                <stop offset="0" stop-color="#D9D9D9"/>
                <stop offset=".767" stop-color="#fff"/>
                <stop offset="1" stop-color="#fff"/>
            </radialGradient>
            <path clip-path="url(#e)" fill="url(#f)" d="M-2.16-12.488l38.426 10.16L26.16 35.89l-38.425-10.16z"/>
        </g>
    </mask>
    <radialGradient id="h" cx="-269.805" cy="391.228" r="1.035" gradientTransform="matrix(13.403 3.544 3.544 -13.403 2239.476 6208.07)" gradientUnits="userSpaceOnUse">
        <stop offset="0" stop-color="#3C0300"/>
        <stop offset=".767" stop-color="#3C0300"/>
        <stop offset="1" stop-color="#3C0300"/>
    </radialGradient>
    <rect fill="#3C0300" width="100%" height="100%"/>
    <path clip-path="url(#c)" mask="url(#g)" fill="url(#h)" d="M2.437-4.437L28.29 2.4l-6.727 25.44-25.853-6.837z"/>
    <path fill="#E67522" d="M1 1h22v21.402H1V1zM0 23.4h24V0H0v23.4z"/>
    <path fill-rule="evenodd" clip-rule="evenodd" fill="#E67522" d="M8.325 13.252l-.792 2.998c-.016.082-.05.1-.15.1H5.917c-.1 0-.115-.032-.1-.147l2.84-9.945c.05-.182.082-.338.098-.833 0-.066.033-.1.083-.1h2.095c.066 0 .1.017.116.1l3.184 10.794c.017.082 0 .13-.082.13H12.5c-.082 0-.132-.018-.15-.085l-.823-3.013H8.325zm2.79-1.626c-.28-1.106-.94-3.53-1.19-4.7H9.91c-.215 1.17-.743 3.15-1.156 4.7h2.36zm4.498-5.557c0-.645.445-1.025 1.023-1.025.61 0 1.023.413 1.023 1.024 0 .66-.43 1.022-1.04 1.022-.595 0-1.007-.363-1.007-1.023m.112 2.272c0-.083.033-.116.116-.116h1.57c.082 0 .115.033.115.116v7.893c0 .083-.016.116-.116.116h-1.552c-.1 0-.133-.048-.133-.13V8.34z"/>
</svg>
