<svg height="512" viewBox="0 0 512 512" width="512" xmlns="http://www.w3.org/2000/svg">
    <rect fill="#045cfc" height="512" rx="64" ry="64" width="512"/>
    <path fill="#fff" d="M417.236 166.778h-100.23v-24.894h100.23v24.894zm-166.95 102.09c6.47 10.01 9.698 22.176 9.698 36.452 0 14.765-3.65 28.01-11.058 39.715-4.718 7.742-10.576 14.29-17.61 19.548-7.924 6.09-17.307 10.264-28.085 12.5-10.815 2.23-22.524 3.36-35.142 3.36H56V131.557h120.197c30.306.496 51.778 9.27 64.465 26.51 7.608 10.573 11.375 23.26 11.375 38.005 0 15.216-3.814 27.392-11.498 36.64-4.275 5.188-10.594 9.906-18.954 14.162 12.665 4.64 22.28 11.938 28.7 21.995zm-136.883-39.19h52.665c10.816 0 19.575-2.06 26.308-6.165 6.727-4.112 10.092-11.406 10.092-21.886 0-11.576-4.45-19.26-13.37-22.96-7.668-2.57-17.474-3.895-29.376-3.895h-46.32v54.907zm94.142 72.092c0-12.936-5.288-21.873-15.836-26.662-5.896-2.73-14.22-4.12-24.89-4.22h-53.417v66.32h52.595c10.8 0 19.167-1.408 25.2-4.365 10.883-5.423 16.347-15.748 16.347-31.073zm246.872-40.49c1.213 8.144 1.752 19.96 1.537 35.4h-129.8c.72 17.917 6.897 30.443 18.64 37.615 7.065 4.496 15.64 6.692 25.69 6.692 10.586 0 19.22-2.68 25.867-8.18 3.623-2.92 6.816-7.038 9.575-12.23h47.578c-1.246 10.58-6.975 21.313-17.265 32.222-15.952 17.328-38.323 26.027-67.043 26.027-23.734 0-44.653-7.335-62.804-21.945-18.097-14.658-27.19-38.436-27.19-71.414 0-30.928 8.164-54.602 24.53-71.08 16.438-16.504 37.64-24.72 63.778-24.72 15.496 0 29.46 2.762 41.916 8.336 12.434 5.572 22.692 14.347 30.784 26.403 7.31 10.61 12.02 22.885 14.21 36.874zm-46.825 4.643c-.876-12.392-5.015-21.77-12.457-28.178-7.39-6.427-16.62-9.654-27.63-9.654-11.986 0-21.23 3.453-27.81 10.226-6.617 6.77-10.737 15.96-12.42 27.605h80.317z"/>
</svg>
