<svg height="512" viewBox="0 0 512 512" width="512" xmlns="http://www.w3.org/2000/svg">
    <path fill="#9D0102" d="M448 0H64C28.654 0 0 28.654 0 64v384c0 35.346 28.654 64 64 64h384c35.346 0 64-28.654 64-64V64c0-35.346-28.654-64-64-64zM187.08 341.832c-41.164 1.472-82.48 1.272-123.64-.376-38.563-1.543-51.437-14.798-53.117-53.37-1.252-28.714-.604-57.607 1.012-86.32 1.432-25.442 11.9-39.133 36.75-40.656 50.17-3.073 100.673-4.762 150.833-2.49 32.877 1.487 44.252 24.035 38.824 64.078-2.214.382-4.686 1.158-7.164 1.178-14.378.118-28.757.058-44.646.058-1.74-19.073-15.407-21.85-30.55-21.877-21.582-.037-43.17.112-64.746.548-16.142.326-23.33 9.718-23.923 25.128-.05 1.31-.156 2.615-.247 3.922-4.394 63.44-1.136 66.918 62.534 66.567 7.858-.043 15.715-.338 23.574-.366 18.103-.067 35.174-1.5 34.8-26.248h53.294c8.756 48.306-6.014 68.523-53.587 70.224zm308.56-31.855c-2.36 16.47-15.426 27.657-31.48 28.087-55.45 1.485-111.05 3.022-166.39.333-26.286-1.277-37.024-17.355-38.127-44.272-1.15-28.125-1.36-56.384-.02-84.492 1.55-32.56 13.85-48.004 46.486-49.767 49.55-2.677 99.543-3.306 148.987.237 37.213 2.666 47.787 21.688 42.218 61.815-14.66 0-29.62.193-44.566-.17-2.854-.07-7.822-1.938-8.14-3.658-3.3-17.778-18.016-15.728-29.527-15.973-26.148-.556-52.334.87-78.508 1.355-13.82.256-20.627 8.272-21.195 20.913-.794 17.65-.766 35.394.09 53.04.676 13.962 9.144 21.036 23.315 21.03 28.84-.012 57.684.254 86.522.006 14.402-.122 22.242-6.41 17.745-24.088h-68.994v-36.05h126.808c-1.608 24.17-1.856 48.137-5.226 71.655z"/>
</svg>
