<svg xmlns="http://www.w3.org/2000/svg" width="24" height="24" viewBox="0 0 24 24">
    <path fill="#90B6E0" d="M22.284 5.663C20.417 2.58 17.112.49 13.434.053c-1.744-.14-3.344 0-4.784.37.023-.01-.044.01-.1.025-.76.203-1.477.47-2.144.8-.022.012-.274.14-.375.195C3.024 3.003.807 5.693.187 9.43c-1.1 6.653 2.768 13.05 9.467 14.345 6.6 1.275 12.784-2.993 13.986-9.522.635-3.1.16-6.47-1.356-8.59M13.306.68c2.526.3 4.767 1.413 6.537 3.092-.27-.093-.555-.163-.852-.204C12.51 2.426 10.414 15.14 8.574 15.1c-1.17.04-5.174-8.717-1.536-12.808.383-.43.852-.81 1.417-1.12C9.89.737 11.514.56 13.306.68m-3.74 20.904C3.652 20.45.49 14.716 1.52 8.768c.043-.25.095-.495.15-.735.708-2.27 1.993-4.124 3.786-5.405-4.314 4.79.51 15.202 3.262 15.482 3.423.214 4.717-10.596 8.735-11.98C20.47 5 22.75 9.513 21.373 14.6c-1.642 5.08-6.276 8.048-11.808 6.986"/>
    <path fill="#FAA74A" d="M12.105 1.503c1.833 0 3.31.42 3.296.94-.01.516-1.508.934-3.34.934-1.833 0-3.31-.422-3.297-.94.013-.517 1.51-.935 3.342-.934"/>
</svg>
