<svg xmlns="http://www.w3.org/2000/svg" width="24" height="24" viewBox="0 0 24 24">
    <path fill="#1CA7CC" d="M19.6 8c.2-.9.1-1.6-.3-2.1-.5-.7-1.5-.9-2.9-.7-.2 0-.4.1-.6.2s-.5.3-.9.5-.7.5-1 .8-.6.7-.9 1.1c-.3.4-.5.9-.7 1.4.8-.1 1.4 0 1.8.3.3.2.5.8.4 1.5-.1.5-.3 1.3-.8 2.2-.4.8-.8 1.3-1.1 1.5-.5.3-.9.3-1.4-.2-.2-.3-.4-.6-.6-1s-.3-.8-.3-1.1c0-.3-.1-.8-.2-1.3s-.1-.9-.1-1.1c-.3-1.4-.5-2.3-.6-2.6-.1-.4-.3-.8-.6-1.1s-.5-.6-.8-.6c-.6-.2-1.2-.1-2 .3-.5.4-1.2.9-2.1 1.7S2.4 9 2 9.3v.1c.2.1.3.2.4.4s.2.3.3.3c.2 0 .5 0 .9-.1.3-.1.7-.2.9-.2.3 0 .5.2.6.5l.3.6c.1.2.2.5.2.8.1.3.1.5.2.6.2.5.5 1.5.8 2.9.4 1.5.7 2.5.9 3.1.4 1 1 1.7 1.6 2 .4.1.9.1 1.3 0s.8-.3 1.2-.5c1.4-.8 2.7-2 3.9-3.7 1.1-1.4 2-3 2.7-4.6s1.2-2.8 1.4-3.5zM24 4.5v15c0 1.2-.4 2.3-1.3 3.2s-2 1.3-3.2 1.3h-15c-1.2 0-2.3-.4-3.2-1.3S0 20.7 0 19.5v-15c0-1.2.4-2.3 1.3-3.2S3.3 0 4.5 0h15c1.2 0 2.3.4 3.2 1.3s1.3 2 1.3 3.2z"/>
</svg>
