<svg xmlns="http://www.w3.org/2000/svg" width="64" height="18.094" viewBox="0 0 64 18.094">
    <path fill="#1ab7ea" d="M17.485 3.966c.793 0 1.478-.277 2.057-.832.515-.49.782-1.002.804-1.535.02-.363-.12-.72-.418-1.072-.3-.35-.676-.528-1.125-.528-.773 0-1.474.256-2.106.767-.632.512-.96 1.046-.98 1.6-.043 1.066.547 1.6 1.768 1.6zM62.996 7.28c-.772-1.006-1.908-1.51-3.407-1.51-2.337 0-4.276.857-5.818 2.568-1.437 1.54-2.1 3.23-1.993 5.07.006.137.018.268.032.4-.08.034-.158.07-.24.104-1.823.785-3.506 1.177-5.048 1.177-.772 0-1.35-.268-1.736-.803 2.078-.34 3.804-1.143 5.176-2.404 1.285-1.155 1.885-2.277 1.8-3.366-.13-1.71-1.243-2.566-3.343-2.566-2.27 0-4.242.86-5.913 2.572-1.522 1.565-2.294 3.214-2.315 4.95-.005.29.01.57.044.84-.36.236-.632.356-.815.356-.406 0-.663-.085-.77-.256-.107-.17-.15-.48-.13-.93 0-.17.135-.825.403-1.967.268-1.142.413-2.012.434-2.61.043-.875-.13-1.548-.514-2.017-.45-.577-1.19-.822-2.218-.737-.857.066-1.682.387-2.475.966-.47.343-.953.803-1.445 1.382-.172.15-.333.29-.483.418.02-.88-.15-1.554-.514-2.025-.45-.578-1.2-.824-2.25-.74-1.222.108-2.325.59-3.31 1.448-.43.364-.805.794-1.126 1.286.042-.193.064-.397.064-.61 0-.665-.172-1.25-.515-1.753-.342-.502-.792-.732-1.35-.69-.32.023-.93.45-1.83 1.286-1.244 1.157-1.918 1.78-2.025 1.864l.77.868c.6-.434.965-.65 1.094-.65.234 0 .33.192.288.576-.02.556-.12 1.33-.295 2.324-.11.616-.19 1.147-.238 1.595l-.03.023c-.77.635-1.306.952-1.606.952-.686 0-1.02-.46-.997-1.377.32-2.005.622-3.66.9-4.962.085-.77-.038-1.392-.37-1.873-.332-.48-.852-.69-1.558-.625-.45.043-1.136.472-2.058 1.286l-.96.87c-.063-1.516-.755-2.296-2.08-2.335-1.983-.063-3.327 1.056-4.03 3.362.363-.156.716-.235 1.06-.235.727 0 1.048.41.962 1.226-.044.495-.365 1.216-.964 2.163-.6.946-1.05 1.42-1.35 1.42-.386 0-.74-.73-1.06-2.19-.11-.427-.3-1.52-.58-3.28-.256-1.63-.942-2.393-2.056-2.286-.472.043-1.18.472-2.12 1.286C1.402 7.738.705 8.36 0 8.98l.673.868c.642-.45 1.017-.675 1.124-.675.49 0 .95.77 1.38 2.312l1.154 4.238c.578 1.54 1.284 2.31 2.118 2.31 1.347 0 2.994-1.264 4.94-3.794 1.367-1.76 2.252-3.248 2.66-4.465.54-.4.873-.602.995-.602.385 0 .578.28.578.835 0 .107-.208.9-.626 2.377-.418 1.478-.638 2.57-.66 3.277-.02.685.146 1.24.5 1.67.352.428.86.642 1.526.642 1.436 0 2.87-.62 4.307-1.862.128-.113.252-.226.374-.342.114.48.31.877.59 1.183.62.663 1.664.973 3.135.93-.197-.47-.274-1.306-.23-2.507.063-1.328.407-2.604 1.03-3.825.62-1.22 1.2-1.83 1.738-1.83.62 0 .912.395.868 1.188-.02.536-.125 1.147-.314 1.833-.19.686-.295 1.372-.316 2.057-.043 1.094.202 1.875.738 2.347.597.535 1.644.782 3.14.74-.224-.493-.314-1.2-.27-2.123.063-1.305.505-2.655 1.322-4.048.774-1.328 1.44-1.993 1.998-1.993.517 0 .764.406.742 1.22-.02.535-.155 1.285-.402 2.25-.246.962-.38 1.786-.4 2.472-.044 1.542.63 2.312 2.025 2.312 1.435 0 2.87-.62 4.306-1.862.023-.02.045-.043.07-.064.048.085.098.17.154.25.75 1.158 1.993 1.736 3.73 1.736 2.334 0 4.638-.652 6.91-1.957.254-.144.496-.287.727-.43.144.288.31.56.51.81.877 1.092 2.163 1.637 3.856 1.637 2.035 0 3.74-.716 5.11-2.15 1.372-1.433 2.1-3.134 2.186-5.103.064-1.453-.267-2.64-.996-3.56zM44.28 13.06c-.012-.277-.012-.416 0-.416.02-.81.364-1.657 1.027-2.542.663-.885 1.315-1.327 1.957-1.327.493 0 .727.288.707.863-.02.426-.342.98-.962 1.663-.77.79-1.68 1.375-2.728 1.76zm16.08-2.342c-.043 1.03-.353 2.018-.932 2.963-.685 1.138-1.51 1.706-2.475 1.706-.43 0-.76-.237-.996-.71-.214-.407-.31-.88-.29-1.416.043-1.095.364-2.125.965-3.09.706-1.182 1.606-1.773 2.7-1.773.342 0 .604.243.787.726.18.483.262 1.015.24 1.594z"/>
</svg>
